<?xml version="1.0" encoding="utf-8"?>
<!-- Generator: Adobe Illustrator 26.3.1, SVG Export Plug-In . SVG Version: 6.00 Build 0)  -->
<svg version="1.1" xmlns="http://www.w3.org/2000/svg" xmlns:xlink="http://www.w3.org/1999/xlink" x="0px" y="0px"
	 viewBox="0 0 3253.7 3214.6" style="enable-background:new 0 0 3253.7 3214.6;" xml:space="preserve">
<style type="text/css">
	.st0{display:none;}
	.st1{display:inline;}
	.st2{fill:#FFFFFF;}
	.st3{display:inline;fill:#FFFFFF;stroke:#000000;stroke-width:7;stroke-miterlimit:10;}
	.st4{display:inline;fill:#FFFFFF;stroke:#000000;stroke-width:4;stroke-miterlimit:10;}
	.st5{display:inline;fill:none;stroke:#000000;stroke-width:4;stroke-miterlimit:10;}
	.st6{display:inline;fill:#FFFFFF;stroke:#000000;stroke-width:3;stroke-miterlimit:10;}
	.st7{display:inline;fill:#FFFFFF;stroke:#000000;stroke-width:5.2548;stroke-miterlimit:10;}
	.st8{display:inline;fill:#FFFFFF;stroke:#000000;stroke-width:4.2849;stroke-miterlimit:10;}
	.st9{display:inline;fill:none;stroke:#000000;stroke-width:5.1681;stroke-miterlimit:10;}
	.st10{display:inline;fill:none;stroke:#000000;stroke-width:4.2869;stroke-miterlimit:10;}
	.st11{fill:#263859;stroke:#070808;stroke-width:10;stroke-miterlimit:10;}
	.st12{fill:#F4A2A4;}
	.st13{fill:none;stroke:#BFBFBF;stroke-width:4;stroke-miterlimit:10;}
	.st14{display:inline;fill:none;stroke:#000000;stroke-width:4.3202;stroke-miterlimit:10;}
	.st15{display:inline;fill:none;stroke:#000000;stroke-width:4.4812;stroke-miterlimit:10;}
</style>
<g id="inspi" class="st0">
	<g class="st1">
		<path class="st2" d="M4373.7,1389.7c-280,0-560,0-840,0c0-286.3,0-572.7,0-859c280,0,560,0,840,0
			C4373.7,817,4373.7,1103.3,4373.7,1389.7z M3902.1,944c-15.1,2.8-21.4,11.8-21.1,25.9c0.5,22.8,0.5,45.6,0,68.4
			c-0.3,13.5,10.3,23.3,23.3,23.1c33.8-0.5,67.6-0.5,101.3,0.1c13.9,0.3,24.7-9.8,24.3-24.4c-0.6-22.6-0.2-45.3-0.1-67.9
			c0.1-16.1-8.2-24.7-24.3-24.7c-22.3,0-44.6,0-66.9,0.1c-4.8,0-9.5,0-14.9,0c0-10.8,0.2-20.7-0.1-30.7
			c-0.3-13.3,7.5-27.4,23.5-31.7c19.2-5.2,36.9,7.9,39.6,26.5c0.7,4.7-1,11.6,1.6,13.6c3.1,2.5,9.5,0.9,14.4,1.1
			c1,0,2.2,0.3,2.9-0.2c1.2-0.8,3-2.2,2.9-3.1c-1-8.7-0.9-17.8-3.8-25.9c-6.7-18.3-20.3-29.5-39.8-33.6c-20.3-4.2-43.8,6-54.5,23.5
			c-6.1,10-8.3,20.8-8.5,32.2C3902,925.5,3902.1,934.6,3902.1,944z M4056.3,664c-0.1-56.2-45.2-101.2-101.9-100.7
			c-55.4,0.5-100.1,44.9-99.8,101c0.3,56.8,44.8,100.2,100.2,100.7C4012,765.4,4056.5,719.3,4056.3,664z M4050.9,1226.8
			c-9.9-39-52.2-75.6-105-70.4c-53.9,5.3-93.9,50.1-91.1,105.8c2.6,52,43,92.3,94.7,95.4c54.4,3.3,94-37,101.2-70.7
			c-5.2,0-10.4,0.2-15.5-0.1c-3.7-0.2-5.5,1.1-7.1,4.5c-11.3,23.5-29.9,38.6-55.3,44.2c-27.4,6-51.9-1.2-72.4-20.3
			c-11.2-10.4-18.9-23.2-22.8-38.2c-4-15.4-3.8-30.8,1.5-45.6c5.4-14.9,14.1-27.8,27-37.7c20.4-15.7,43.2-20.9,67.8-15.1
			c25,5.9,43.4,21,54.5,44.5c0.7,1.5,2.6,3.5,4,3.6C4038.5,1227,4044.7,1226.8,4050.9,1226.8z M4175,634.2c5.9,0,11.2-0.2,16.5,0.1
			c3.3,0.2,5-1.1,6.5-4.1c9-18.8,23.1-32.4,42.4-40.4c13.2-5.5,26.9-7.8,40.9-5.6c21.7,3.4,39.7,13.5,53.3,31.3
			c15.6,20.3,20.5,43.2,14.6,67.6c-5.5,22.6-18.9,39.9-39.6,51.4c-23.8,13.1-48,13.6-72.5,2.6c-17.9-8-30.7-21.4-39.2-39
			c-0.7-1.4-2.3-3.4-3.5-3.5c-6.3-0.4-12.6-0.2-19-0.2c10.5,39.1,50.6,73.2,100.8,70.5c53.4-2.9,92.4-44.2,95.5-94.7
			c3.2-53.3-35.5-101.1-91.5-106.4C4232.1,559.2,4187.9,590,4175,634.2z M3700.2,880.3c0.1,1.9,0.3,3.2,0.3,4.5
			c0,50.4,0,100.8,0.1,151.3c0,4-1.3,5-5.2,5c-33.6-0.1-67.2-0.1-100.8-0.1c-1.5,0-2.9-0.2-5-0.3c0-10,0-19.7,0-29.4
			c-7,0-13.4,0-19.9,0c0,11-0.6,21.6,0.2,32.2c0.8,10.3,9.5,17.7,19.4,17.7c37.3,0.1,74.6,0.1,111.8,0c10.6,0,19.4-8.6,19.4-19.2
			c0.1-54.4,0.1-108.8,0-163.3c0-10.1-8.8-19.2-19-19.2c-37.6-0.2-75.2-0.1-112.8,0c-7.6,0-17,6.7-17.9,14c-1.4,11.9-1.4,24-2,36.3
			c7.7,0,14,0,21,0c0-10,0-19.7,0-29.6C3626.9,880.3,3663.3,880.3,3700.2,880.3z M3690.6,1206.5c6.2,0,12,0.2,17.8-0.2
			c1-0.1,2.7-2.3,2.7-3.5c0.2-8.6,0.2-17.3,0-26c-0.3-12.9-10.7-20.9-19.3-20.9c-37.6,0-75.2,0.1-112.8-0.1
			c-8.5-0.1-19.6,10.3-19.4,19.1c0.3,11.6,0,23.3,0,34.9c0,42.8,0,85.5,0.1,128.3c0,10.5,9.3,19.5,19.8,19.5c37.3,0,74.6,0,111.8,0
			c8.3,0,17.3-6.4,18.3-14.6c1.3-11,1.2-22.2,1.5-33.3c0-0.8-1.5-2.4-2.3-2.4c-5.9-0.2-11.9-0.1-18.2-0.1c0,10.2,0,19.8,0,29.5
			c-1.2,0.2-2,0.5-2.8,0.5c-34.6,0.1-69.2,0-103.8,0.2c-3.9,0-4.2-2-4.2-5c0-50.3,0.1-100.5-0.1-150.8c0-4.6,1.7-5.5,5.8-5.5
			c28.8,0.2,57.6,0.1,86.4,0.1c6.1,0,12.2,0,18.8,0C3690.6,1186.6,3690.6,1196.2,3690.6,1206.5z M3616.9,664.7
			c-13.2-6.7-25.3-8.6-38.7-5.6c-32.3,7.3-48.2,45.3-32.9,73.4c14.2,26,46.9,35.9,73,19c23.2-15.1,30.7-45.5,15.6-69.4
			c-1.8-2.9-1.8-4.8,0.8-7.3c9.2-8.8,18.2-17.8,27.1-27c2.2-2.2,3.7-5,5.6-7.8c2.8,2.5,3.9,3.5,4.9,4.5c7.4,7.4,14.9,14.7,22.3,22.1
			c1.7,1.7,3.1,2.8,5.4,0.7c4.1-3.8,8.3-7.4,12.7-11.3c-2.1-2.4-3.1-3.6-4.2-4.8c-7.3-7.4-14.7-14.7-22-22.1c-1.6-1.6-3.1-3-0.7-5.4
			c3.9-3.8,7.6-7.8,12.1-12.4c9.6,10.2,18.8,19.9,29,30.7c4.6-5.1,8.4-9,11.7-13.3c0.9-1.1,0.8-4.2-0.2-5.3
			c-4-4.6-8.5-8.9-12.9-13.2c-4.4-4.2-9-8.2-14.2-12.9c5.1-4.8,9-8.4,12.9-11.9c2.2-1.9,2.6-3.4,0.1-5.5c-3.2-2.8-6.2-6-9.1-9.1
			c-2-2.2-3.5-2.3-5.7-0.1c-21,21.2-42.2,42.2-63.1,63.4C3636.2,644.4,3626.5,654.7,3616.9,664.7z M4270.3,1021
			c15.3,0,30.6-0.1,45.9,0.1c3.8,0,5.3-0.8,5.2-5c-0.2-20.3-0.2-40.6-0.1-60.9c0-3.7-1.1-5.3-4.8-4.8c-4.4,0.6-5.2-1.6-5.2-5.5
			c0-8.5-1.2-16.7-5.5-24.4c-12.6-22.4-42-26.6-60.3-11.6c-11.4,9.3-15.7,21.8-15.3,36.1c0.1,4-0.9,6.1-5.2,5.5
			c-4.2-0.6-4.9,1.6-4.9,5.3c0.2,20.1,0.2,40.3,0,60.4c0,4.1,1.5,5.1,5.2,5C4240.4,1020.9,4255.3,1021,4270.3,1021z M3947.7,1304.2
			c5.3-5.1,9.9-9.5,15.5-14.9c-7.7-7-15.1-13.7-23.6-21.4c3-0.4,4.2-0.8,5.4-0.8c16.8,0,33.6,0,50.4,0c18.6,0,37.3,0,55.9,0.2
			c3.6,0,5.3-0.9,4.9-4.8c-0.3-3.3-0.4-6.7,0-10c0.6-5.1-1.5-6-6.2-6c-30,0.2-59.9,0.1-89.9,0.1c-6.3,0-12.5,0-18.8,0
			c-0.4-0.7-0.8-1.4-1.2-2.2c7.5-6.8,15-13.5,22.1-20c-5.2-5.6-9.6-10.2-14.5-15.5c-15.2,15.4-30.1,30.4-44.8,45.5
			c-0.8,0.8-0.8,3.7,0,4.5C3917.9,1274.2,3932.8,1289.1,3947.7,1304.2z M4277.7,615.9c-2,2.4-3.2,4.2-4.8,5.7
			c-9.6,9.3-9.6,9.2-0.1,18.6c4.1,4.1,8.3,8.2,12.4,12.4c-0.2,0.5-0.4,1-0.6,1.5c-38.1,0-76.2,0-114.3,0c0,7.1,0,13.3,0,20.4
			c38.4,0,76.4,0,115.7,0c-1.7,2-2.5,3-3.4,3.9c-5.3,5.4-10.8,10.7-16,16.3c-0.9,1-1.3,3.9-0.6,4.8c3.5,4.5,7.5,8.6,11.6,13.1
			c13.9-14,26.8-27,39.6-40c8.4-8.5,8.4-8.5-0.2-17C4304.1,642.6,4291.3,629.6,4277.7,615.9z M3643.7,970.7c0.1,0.5,0.2,0.9,0.3,1.4
			c-3.6,3.8-7.2,7.6-10.8,11.4c-3.2,3.5-9.1,7.3-8.8,10.5c0.4,3.9,6,7.3,9.3,11c2.5,2.8,4.4,2.2,6.9-0.3c9-9.2,18.2-18.2,27.3-27.3
			c5.5-5.6,11-11.2,16.1-16.4c-16-16.1-31.5-31.8-47.2-47.6c-2.1,1.9-4.2,3.8-6.1,5.8c-8.2,8.2-8.1,8.2,0.1,16.2
			c4.5,4.4,8.9,9,13.4,13.6c-0.2,0.5-0.3,1-0.5,1.5c-28,0-55.9,0-83.9,0c0,7.2,0,13.4,0,20.4
			C3588.1,970.7,3615.9,970.7,3643.7,970.7z M3659,1223.1c-4.9-4.1-9-7-12.4-10.6c-2.8-3-4.5-2.6-7.2,0.1
			c-13.6,13.8-27.3,27.4-41,41c-0.9,0.9-1.6,2-2.3,2.9c0.4,0.7,0.6,1.2,1,1.6c14.7,14.8,29.3,29.6,44.1,44.3c0.7,0.7,3,0.8,3.7,0.2
			c4.2-3.9,8.1-8.1,12.4-12.4c-7.4-7.6-14.3-14.7-21.3-21.8c0.2-0.4,0.4-0.9,0.6-1.3c12.6,0,25.1,0,37.7,0c14.1,0,28.3,0,42.4,0.1
			c3,0,4.2-1.1,4-4.1c-0.2-3.8-0.3-7.7,0-11.5c0.3-3.9-1.2-5.2-5.1-5.1c-20.6,0.2-41.2,0.1-61.8,0.1c-5.9,0-11.8,0-17.7,0
			c-0.3-0.6-0.6-1.1-0.9-1.7C3642.7,1238.1,3650.1,1231.3,3659,1223.1z M4371.6,940.2c0-21.5,0.6-42.3-0.3-63
			c-0.4-9.7-8.1-17.1-18.6-17.5c-19.4-0.7-38.9-0.2-58.4-0.4c-2.6,0-3.6,1-3.5,3.5c0.1,4.3,0.2,8.7,0.1,13c-0.1,3.2,1.2,4.3,4.4,4.3
			c13.5-0.2,27-0.1,40.4-0.1c5,0,9.9,0,15.4,0c0,2.4,0,4.2,0,6c0,16.5,0.1,33,0.1,49.4c0,2.3-0.4,4.8,3.3,4.8
			C4360.1,940.1,4365.6,940.2,4371.6,940.2z M4250.3,859.4c-11.8,0-23.1,0-34.4,0c-9.3,0-18.7-0.3-28,0.3c-9.8,0.6-17.9,10-18,19.9
			c-0.1,18,0,36-0.1,53.9c0,2.1,0,4.2,0,6.7c5.2,0,9.9-0.3,14.5,0.1c4.5,0.3,6.1-1,6-5.7c-0.3-16.3-0.1-32.6,0-48.9
			c0-1.7,0.2-3.5,0.3-5.8c20.1,0,39.7,0,59.6,0C4250.3,873,4250.3,866.6,4250.3,859.4z M4351.1,981.1c0,20.2,0,39.7,0,59.9
			c-20.2,0-39.7,0-59.8,0c0,6.9,0,13.3,0,19.8c0.8,0.2,1.4,0.5,2,0.5c20,0,40,0.2,59.9-0.2c9.7-0.2,18.3-9.5,18.4-19.4
			c0.1-19.1,0.1-38.3,0.1-57.4c0-1.1-0.3-2.2-0.4-3.2C4364.7,981.1,4358.4,981.1,4351.1,981.1z M4170.2,981.2
			c-0.1,1.5-0.3,3-0.3,4.5c0,18.3,0,36.6,0,54.9c0,11.9,8.7,20.5,20.7,20.7c8.7,0.1,17.3,0.1,26,0.1c11.1,0,22.2,0,33.5,0
			c0-7,0-13.5,0-20.5c-20.1,0-39.7,0-59.8,0c0-20.1,0-39.7,0-59.6C4183.2,981.2,4176.9,981.2,4170.2,981.2z M4186.4,1240.8
			c7.1,0,13.9,0.1,20.6,0c13.9-0.3,11.3,2.9,11.7-12.3c0.1-3.4-1.6-4.3-4.6-4.3c-11.6,0.1-23.3-0.1-34.9,0.2
			c-6.5,0.1-9.3,3.2-9.3,9.7c0,14.6,0,29.3,0,43.9c0,8.4,2.8,11.3,11.3,11.4c9,0.1,18,0,26.9,0c12.3,0,10.1,0.8,10.6-10.3
			c0.3-5.2-1.4-6.6-6.4-6.3c-8.6,0.4-17.2,0.1-26,0.1c0-3,0-5.2,0-8.1c8.2,0,16.1,0,24.3,0c0-4-0.2-7.3,0.1-10.6
			c0.4-4.1-0.9-5.6-5.2-5.4c-6.3,0.3-12.5,0.1-19.1,0.1C4186.4,1246.1,4186.4,1244,4186.4,1240.8z M4226.2,1289.3
			c5.6,0,10.1,0.4,14.4-0.2c2-0.3,4.2-2,5.5-3.7c1.8-2.3,2.8-5.2,4.4-8.6c1.6,3.1,2.4,5,3.6,6.9c1.2,1.9,2.4,5,3.9,5.2
			c5.1,0.6,10.4,0.2,16.4,0.2c-0.8-2.3-1.2-3.7-1.8-5c-3.9-8.2-7.9-16.4-11.6-24.6c-0.7-1.4-0.9-3.6-0.3-5c2.8-6.4,6-12.5,8.9-18.8
			c1.6-3.5,3.1-7,4.7-10.7c-15.6-2.6-17.3-1.8-22.8,10.1c-0.1,0.2-0.5,0.2-1.4,0.6c-1.2-2.5-2.4-5.2-3.8-7.7c-0.8-1.4-1.9-3.4-3-3.5
			c-5.4-0.4-10.7-0.2-17-0.2c4.8,10.3,9.2,19.3,13.1,28.6c0.9,2.2,0.9,5.5,0,7.7C4235.5,1269.9,4231,1279,4226.2,1289.3z
			 M4338.9,1240.8c0.1,2.3,0.3,3.9,0.3,5.5c0,10.5-0.1,20.9,0,31.4c0.1,13.2-2.2,11.4,12.2,11.6c3.5,0.1,4.6-1.4,4.5-4.8
			c-0.2-10-0.1-19.9-0.1-29.9c0-4.4,0-8.9,0-14c5.7,0,10.8,0,15.7,0c0-5.8,0-10.9,0-16.4c-15.3,0-30.2-0.1-45.1,0.1
			c-1.1,0-3.2,2.2-3.2,3.2c0.2,4.4,1,8.7,1.8,13c0,0.3,2.2,0.1,3.3,0.2C4331.6,1240.9,4334.9,1240.8,4338.9,1240.8z M4314.8,1224.3
			c-7.1,0-13.7-0.1-20.4,0c-13.7,0.1-11.4-1.9-11.6,12.1c0,2.9,0.6,5,4.1,4.5c3.6-0.5,4.1,1.6,4,4.5c-0.1,7.7-0.3,15.3,0,23
			c0.1,3.5-1,4.7-4.5,4.7c-1.2,0-3.5,2.3-3.4,3.3c0.5,4.3-2.5,9.3,2,12.9c0.1,0.1,0.3,0.1,0.5,0.1c9.6,0,19.2,0,29,0
			c0-5.8,0-11,0-16.2c-2.7-0.2-4.9-0.5-7.2-0.7c0-10.7,0-20.9,0-31.2c2.7-0.2,4.9-0.5,7.4-0.7
			C4314.8,1235.2,4314.8,1230.3,4314.8,1224.3z"/>
		<path d="M3902.1,944c0-9.3-0.1-18.5,0-27.6c0.2-11.4,2.5-22.2,8.5-32.2c10.7-17.6,34.2-27.8,54.5-23.5c19.4,4,33,15.2,39.8,33.6
			c2.9,8,2.9,17.2,3.8,25.9c0.1,0.9-1.7,2.3-2.9,3.1c-0.7,0.5-1.9,0.2-2.9,0.2c-5-0.2-11.3,1.4-14.4-1.1c-2.5-2-0.9-8.9-1.6-13.6
			c-2.7-18.7-20.4-31.7-39.6-26.5c-16,4.3-23.9,18.4-23.5,31.7c0.3,9.9,0.1,19.9,0.1,30.7c5.3,0,10.1,0,14.9,0
			c22.3,0,44.6-0.1,66.9-0.1c16,0,24.3,8.7,24.3,24.7c-0.1,22.6-0.4,45.3,0.1,67.9c0.4,14.7-10.5,24.7-24.3,24.4
			c-33.8-0.6-67.6-0.6-101.3-0.1c-13,0.2-23.6-9.7-23.3-23.1c0.5-22.8,0.5-45.6,0-68.4C3880.8,955.8,3887.1,946.7,3902.1,944z
			 M3955.3,1039.8c0,0.1,0,0.1,0,0.2c16,0,31.9-0.1,47.9,0.1c4.2,0,5.8-1.2,5.7-5.7c-0.2-20.8-0.2-41.6-0.2-62.4
			c0-6.3-0.1-6.4-6.4-6.4c-31.3,0-62.5,0.1-93.8,0c-4.8,0-6.4,1.5-6.3,6.3c0.2,20,0.1,39.9,0.2,59.9c0,8-1.9,8.2,8.4,8.2
			C3925.8,1039.8,3940.5,1039.8,3955.3,1039.8z"/>
		<path d="M4056.3,664c0.2,55.3-44.3,101.5-101.5,101c-55.4-0.4-100-43.9-100.2-100.7c-0.2-56.1,44.4-100.5,99.8-101
			C4011.1,562.8,4056.2,607.7,4056.3,664z M3955.2,744.5c44.3,0.8,81.3-37.4,80.9-81.2c-0.4-43.3-37.1-80.3-81.9-79.9
			c-42,0.4-79.5,37.5-79.3,80.9C3875,707.7,3913,745.4,3955.2,744.5z"/>
		<path d="M4050.9,1226.8c-6.2,0-12.4,0.2-18.4-0.2c-1.4-0.1-3.3-2-4-3.6c-11.2-23.5-29.5-38.6-54.5-44.5
			c-24.7-5.8-47.5-0.7-67.8,15.1c-12.9,10-21.6,22.8-27,37.7c-5.3,14.8-5.5,30.2-1.5,45.6c3.9,15,11.6,27.8,22.8,38.2
			c20.6,19.1,45,26.3,72.4,20.3c25.4-5.6,44-20.6,55.3-44.2c1.6-3.4,3.4-4.7,7.1-4.5c5.1,0.3,10.3,0.1,15.5,0.1
			c-7.2,33.8-46.8,74-101.2,70.7c-51.7-3.1-92.1-43.4-94.7-95.4c-2.8-55.7,37.3-100.5,91.1-105.8
			C3998.7,1151.2,4041,1187.8,4050.9,1226.8z"/>
		<path d="M4175,634.2c12.9-44.2,57.1-75,105-70.5c56,5.3,94.7,53.1,91.5,106.4c-3,50.5-42.1,91.9-95.5,94.7
			c-50.2,2.7-90.3-31.4-100.8-70.5c6.4,0,12.7-0.2,19,0.2c1.3,0.1,2.8,2,3.5,3.5c8.5,17.6,21.3,31,39.2,39
			c24.5,10.9,48.7,10.5,72.5-2.6c20.7-11.4,34.1-28.8,39.6-51.4c5.9-24.4,1-47.2-14.6-67.6c-13.6-17.8-31.6-27.9-53.3-31.3
			c-14-2.2-27.7,0.1-40.9,5.6c-19.3,8.1-33.4,21.6-42.4,40.4c-1.4,3-3.1,4.2-6.5,4.1C4186.2,634,4180.9,634.2,4175,634.2z"/>
		<path d="M3700.2,880.3c-36.9,0-73.3,0-110.4,0c0,9.8,0,19.5,0,29.6c-7,0-13.4,0-21,0c0.6-12.3,0.6-24.4,2-36.3
			c0.9-7.2,10.3-14,17.9-14c37.6-0.1,75.2-0.2,112.8,0c10.2,0,19,9.1,19,19.2c0.1,54.4,0.1,108.8,0,163.3c0,10.5-8.8,19.2-19.4,19.2
			c-37.3,0.1-74.6,0.1-111.8,0c-9.9,0-18.6-7.4-19.4-17.7c-0.8-10.6-0.2-21.2-0.2-32.2c6.5,0,12.9,0,19.9,0c0,9.7,0,19.4,0,29.4
			c2.1,0.1,3.5,0.3,5,0.3c33.6,0,67.2-0.1,100.8,0.1c3.9,0,5.2-1,5.2-5c-0.1-50.4-0.1-100.8-0.1-151.3
			C3700.6,883.5,3700.4,882.2,3700.2,880.3z"/>
		<path d="M3690.6,1206.5c0-10.3,0-19.9,0-30.2c-6.5,0-12.6,0-18.8,0c-28.8,0-57.6,0.1-86.4-0.1c-4.2,0-5.9,0.9-5.8,5.5
			c0.2,50.3,0.1,100.5,0.1,150.8c0,3,0.3,5,4.2,5c34.6-0.1,69.2-0.1,103.8-0.2c0.8,0,1.6-0.3,2.8-0.5c0-9.7,0-19.3,0-29.5
			c6.3,0,12.3-0.1,18.2,0.1c0.8,0,2.3,1.6,2.3,2.4c-0.3,11.1-0.2,22.3-1.5,33.3c-1,8.2-10,14.6-18.3,14.6
			c-37.3,0.1-74.6,0.1-111.8,0c-10.5,0-19.7-9-19.8-19.5c-0.1-42.8-0.1-85.5-0.1-128.3c0-11.7,0.3-23.3,0-34.9
			c-0.3-8.8,10.9-19.2,19.4-19.1c37.6,0.2,75.2,0.1,112.8,0.1c8.5,0,18.9,8,19.3,20.9c0.2,8.6,0.2,17.3,0,26c0,1.2-1.7,3.5-2.7,3.5
			C3702.6,1206.7,3696.8,1206.5,3690.6,1206.5z"/>
		<path d="M3616.9,664.7c9.6-10,19.3-20.4,29.2-30.4c21-21.2,42.1-42.2,63.1-63.4c2.2-2.2,3.7-2.1,5.7,0.1c2.9,3.1,5.8,6.3,9.1,9.1
			c2.5,2.2,2.1,3.6-0.1,5.5c-3.9,3.5-7.8,7.2-12.9,11.9c5.2,4.7,9.8,8.7,14.2,12.9c4.5,4.2,8.9,8.5,12.9,13.2
			c0.9,1.1,1.1,4.2,0.2,5.3c-3.3,4.3-7.1,8.2-11.7,13.3c-10.2-10.8-19.4-20.6-29-30.7c-4.5,4.6-8.2,8.7-12.1,12.4
			c-2.4,2.3-0.9,3.8,0.7,5.4c7.3,7.4,14.7,14.7,22,22.1c1.1,1.1,2.1,2.4,4.2,4.8c-4.4,3.9-8.6,7.5-12.7,11.3c-2.3,2.1-3.7,1-5.4-0.7
			c-7.4-7.4-14.8-14.7-22.3-22.1c-1-1-2.1-2-4.9-4.5c-1.9,2.7-3.5,5.5-5.6,7.8c-8.9,9.1-17.9,18.1-27.1,27c-2.6,2.5-2.6,4.4-0.8,7.3
			c15.2,24,7.7,54.3-15.6,69.4c-26,16.9-58.8,7-73-19c-15.3-28.1,0.6-66.1,32.9-73.4C3591.6,656.1,3603.8,658,3616.9,664.7z
			 M3590.9,678.4c-17.4-0.1-31,13.2-31.1,30.5c-0.1,16.2,14,30.6,30.5,30.3c17.5-0.3,30.4-12.5,30.8-30.6
			C3621.5,691.6,3607,677.8,3590.9,678.4z"/>
		<path d="M4270.3,1021c-15,0-29.9-0.1-44.9,0.1c-3.7,0-5.3-0.9-5.2-5c0.2-20.1,0.1-40.3,0-60.4c0-3.7,0.7-5.9,4.9-5.3
			c4.3,0.6,5.3-1.5,5.2-5.5c-0.4-14.3,3.9-26.8,15.3-36.1c18.4-14.9,47.7-10.8,60.3,11.6c4.3,7.7,5.5,15.9,5.5,24.4
			c0,3.9,0.8,6.1,5.2,5.5c3.7-0.5,4.8,1.1,4.8,4.8c-0.1,20.3-0.1,40.6,0.1,60.9c0,4.1-1.5,5-5.2,5
			C4300.9,1020.9,4285.6,1021,4270.3,1021z M4241,970.8c0,10.2,0,19.8,0,29.7c19.9,0,39.6,0,59.5,0c0-10,0-19.7,0-29.7
			C4280.6,970.8,4261.1,970.8,4241,970.8z M4270.3,950.4c5.5,0,11,0,16.5,0c2.9,0,4.4-1.1,4.1-4.2c-0.4-3.8-0.1-7.7-1.1-11.3
			c-3.7-13-17.2-17.9-28.4-11.9c-10.6,5.6-11.2,15.8-10.4,24.7c0.1,1,2.5,2.4,3.9,2.5C4260,950.6,4265.2,950.4,4270.3,950.4z"/>
		<path d="M3947.7,1304.2c-14.9-15.1-29.8-30-44.5-45.1c-0.8-0.8-0.8-3.7,0-4.5c14.7-15.2,29.6-30.2,44.8-45.5
			c4.9,5.3,9.3,9.9,14.5,15.5c-7.1,6.4-14.6,13.2-22.1,20c0.4,0.7,0.8,1.4,1.2,2.2c6.3,0,12.5,0,18.8,0c30,0,59.9,0.1,89.9-0.1
			c4.6,0,6.8,0.9,6.2,6c-0.4,3.3-0.3,6.7,0,10c0.3,3.9-1.4,4.8-4.9,4.8c-18.6-0.2-37.3-0.1-55.9-0.2c-16.8,0-33.6,0-50.4,0
			c-1.2,0-2.5,0.3-5.4,0.8c8.5,7.7,15.9,14.4,23.6,21.4C3957.6,1294.7,3953,1299.1,3947.7,1304.2z"/>
		<path d="M4277.7,615.9c13.6,13.7,26.4,26.7,39.3,39.6c8.5,8.6,8.6,8.5,0.2,17c-12.9,13-25.7,26-39.6,40
			c-4.1-4.5-8.1-8.7-11.6-13.1c-0.7-0.9-0.3-3.8,0.6-4.8c5.2-5.6,10.6-10.9,16-16.3c0.9-0.9,1.7-1.9,3.4-3.9c-39.2,0-77.3,0-115.7,0
			c0-7,0-13.3,0-20.4c38.1,0,76.2,0,114.3,0c0.2-0.5,0.4-1,0.6-1.5c-4.1-4.1-8.3-8.2-12.4-12.4c-9.5-9.4-9.5-9.4,0.1-18.6
			C4274.4,620.1,4275.7,618.3,4277.7,615.9z"/>
		<path d="M3643.7,970.7c-27.8,0-55.7,0-83.8,0c0-6.9,0-13.2,0-20.4c28,0,56,0,83.9,0c0.2-0.5,0.3-1,0.5-1.5
			c-4.5-4.5-8.9-9.1-13.4-13.6c-8.2-8-8.2-8-0.1-16.2c2-2,4.1-3.8,6.1-5.8c15.7,15.8,31.2,31.4,47.2,47.6
			c-5.1,5.2-10.6,10.9-16.1,16.4c-9.1,9.1-18.3,18.1-27.3,27.3c-2.5,2.5-4.4,3.1-6.9,0.3c-3.3-3.7-8.9-7-9.3-11
			c-0.3-3.2,5.6-7,8.8-10.5c3.5-3.9,7.2-7.6,10.8-11.4C3644,971.6,3643.9,971.1,3643.7,970.7z"/>
		<path d="M3659,1223.1c-8.9,8.1-16.4,14.9-23.8,21.7c0.3,0.6,0.6,1.1,0.9,1.7c5.9,0,11.8,0,17.7,0c20.6,0,41.2,0.1,61.8-0.1
			c3.9,0,5.4,1.2,5.1,5.1c-0.3,3.8-0.2,7.7,0,11.5c0.1,3-1,4.1-4,4.1c-14.1-0.1-28.3-0.1-42.4-0.1c-12.6,0-25.1,0-37.7,0
			c-0.2,0.4-0.4,0.9-0.6,1.3c6.9,7.1,13.9,14.2,21.3,21.8c-4.3,4.3-8.2,8.5-12.4,12.4c-0.7,0.6-3,0.5-3.7-0.2
			c-14.8-14.7-29.4-29.5-44.1-44.3c-0.3-0.3-0.5-0.8-1-1.6c0.7-0.9,1.4-2,2.3-2.9c13.7-13.7,27.4-27.3,41-41
			c2.7-2.7,4.3-3.1,7.2-0.1C3650,1216.1,3654.1,1219,3659,1223.1z"/>
		<path d="M4371.6,940.2c-6.1,0-11.5-0.1-17,0c-3.7,0.1-3.3-2.4-3.3-4.8c0-16.5-0.1-33-0.1-49.4c0-1.8,0-3.6,0-6
			c-5.5,0-10.5,0-15.4,0c-13.5,0-27-0.1-40.4,0.1c-3.2,0-4.5-1-4.4-4.3c0.1-4.3,0-8.7-0.1-13c-0.1-2.5,0.9-3.6,3.5-3.5
			c19.5,0.1,39-0.4,58.4,0.4c10.5,0.4,18.2,7.8,18.6,17.5C4372.2,898,4371.6,918.8,4371.6,940.2z"/>
		<path d="M4250.3,859.4c0,7.2,0,13.6,0,20.5c-20,0-39.5,0-59.6,0c-0.1,2.3-0.3,4-0.3,5.8c-0.1,16.3-0.3,32.6,0,48.9
			c0.1,4.8-1.5,6.1-6,5.7c-4.6-0.3-9.2-0.1-14.5-0.1c0-2.5,0-4.6,0-6.7c0-18,0-36,0.1-53.9c0-9.9,8.1-19.3,18-19.9
			c9.3-0.6,18.6-0.3,28-0.3C4227.2,859.4,4238.5,859.4,4250.3,859.4z"/>
		<path d="M4351.1,981.1c7.3,0,13.6,0,20.2,0c0.1,1,0.4,2.1,0.4,3.2c0,19.1,0.1,38.3-0.1,57.4c-0.1,9.8-8.6,19.2-18.4,19.4
			c-20,0.3-39.9,0.2-59.9,0.2c-0.6,0-1.2-0.3-2-0.5c0-6.5,0-12.9,0-19.8c20,0,39.6,0,59.8,0
			C4351.1,1020.9,4351.1,1001.3,4351.1,981.1z"/>
		<path d="M4170.2,981.2c6.7,0,13.1,0,20.1,0c0,19.9,0,39.5,0,59.6c20.2,0,39.7,0,59.8,0c0,7,0,13.5,0,20.5c-11.2,0-22.4,0-33.5,0
			c-8.7,0-17.3,0-26-0.1c-12-0.1-20.7-8.7-20.7-20.7c-0.1-18.3,0-36.6,0-54.9C4169.9,984.2,4170.1,982.7,4170.2,981.2z"/>
		<path d="M4186.4,1240.8c0,3.1,0,5.2,0,8c6.6,0,12.9,0.2,19.1-0.1c4.3-0.2,5.6,1.4,5.2,5.4c-0.3,3.3-0.1,6.6-0.1,10.6
			c-8.3,0-16.1,0-24.3,0c0,2.9,0,5.1,0,8.1c8.8,0,17.5,0.3,26-0.1c5-0.2,6.7,1.1,6.4,6.3c-0.5,11.1,1.7,10.2-10.6,10.3
			c-9,0-18,0.1-26.9,0c-8.5-0.1-11.3-3-11.3-11.4c0-14.6,0-29.3,0-43.9c0-6.4,2.8-9.5,9.3-9.7c11.6-0.2,23.3-0.1,34.9-0.2
			c3,0,4.6,0.8,4.6,4.3c-0.4,15.2,2.2,12-11.7,12.3C4200.3,1241,4193.5,1240.8,4186.4,1240.8z"/>
		<path d="M4226.2,1289.3c4.8-10.3,9.2-19.4,13.2-28.6c0.9-2.2,1-5.5,0-7.7c-3.9-9.3-8.4-18.3-13.1-28.6c6.3,0,11.7-0.2,17,0.2
			c1.1,0.1,2.3,2.2,3,3.5c1.4,2.5,2.5,5.1,3.8,7.7c0.9-0.4,1.3-0.4,1.4-0.6c5.6-11.9,7.3-12.7,22.8-10.1c-1.6,3.7-3,7.3-4.7,10.7
			c-2.9,6.3-6.1,12.4-8.9,18.8c-0.6,1.4-0.4,3.6,0.3,5c3.7,8.3,7.8,16.4,11.6,24.6c0.6,1.3,1,2.7,1.8,5c-6,0-11.3,0.4-16.4-0.2
			c-1.5-0.2-2.7-3.3-3.9-5.2c-1.1-1.8-2-3.8-3.6-6.9c-1.7,3.3-2.7,6.2-4.4,8.6c-1.3,1.7-3.5,3.4-5.5,3.7
			C4236.3,1289.7,4231.8,1289.3,4226.2,1289.3z"/>
		<path d="M4338.9,1240.8c-4,0-7.3,0-10.6,0c-1.2,0-3.3,0.1-3.3-0.2c-0.8-4.3-1.6-8.6-1.8-13c0-1.1,2-3.2,3.2-3.2
			c14.9-0.2,29.8-0.1,45.1-0.1c0,5.5,0,10.6,0,16.4c-4.9,0-9.9,0-15.7,0c0,5.2,0,9.6,0,14c0,10-0.1,19.9,0.1,29.9
			c0.1,3.4-1,4.8-4.5,4.8c-14.4-0.2-12,1.5-12.2-11.6c-0.1-10.5,0-20.9,0-31.4C4339.1,1244.8,4339,1243.1,4338.9,1240.8z"/>
		<path d="M4314.8,1224.3c0,6,0,11,0,16.3c-2.4,0.2-4.7,0.4-7.4,0.7c0,10.3,0,20.5,0,31.2c2.3,0.2,4.5,0.4,7.2,0.7
			c0,5.2,0,10.4,0,16.2c-9.8,0-19.4,0-29,0c-0.2,0-0.4,0-0.5-0.1c-4.6-3.6-1.6-8.6-2-12.9c-0.1-1,2.2-3.3,3.4-3.3
			c3.5,0,4.6-1.2,4.5-4.7c-0.2-7.6-0.1-15.3,0-23c0.1-2.9-0.4-5-4-4.5c-3.6,0.5-4.2-1.6-4.1-4.5c0.2-14-2.2-12,11.6-12.1
			C4301.1,1224.2,4307.7,1224.3,4314.8,1224.3z"/>
		<path class="st2" d="M3955.3,1039.8c-14.8,0-29.6,0-44.4,0c-10.4,0-8.4-0.1-8.4-8.2c-0.1-20,0-39.9-0.2-59.9
			c-0.1-4.8,1.5-6.3,6.3-6.3c31.3,0.2,62.5,0,93.8,0c6.3,0,6.4,0.1,6.4,6.4c0,20.8-0.1,41.6,0.2,62.4c0.1,4.5-1.5,5.8-5.7,5.7
			c-16-0.1-31.9-0.1-47.9-0.1C3955.3,1040,3955.3,1039.9,3955.3,1039.8z M3971.2,1003.5c0.2-8.6-6.4-16-14.6-16.3
			c-9.4-0.3-17,6.6-17,15.5c-0.1,8.5,7,15.8,15.6,16.2C3963.6,1019.2,3971,1012.1,3971.2,1003.5z"/>
		<path class="st2" d="M3955.2,744.5c-42.3,0.9-80.2-36.8-80.3-80.1c-0.1-43.4,37.4-80.5,79.3-80.9c44.8-0.4,81.4,36.6,81.9,79.9
			C4036.6,707.1,3999.6,745.3,3955.2,744.5z M3975.8,714.2c-1.9-13.1-3.6-25.7-5.7-38.3c-0.6-3.6,0.1-5.9,3.1-7.9
			c10-6.9,14.8-20.6,11.5-32.1c-4.3-15.1-21.1-27.5-40-20.2c-10.4,4.1-17.1,12-19,22.9c-1.9,11,1.4,21.2,10.3,27.9
			c5,3.8,5.4,7.1,4.4,12.5c-2.1,11.6-3.4,23.2-5.1,35.2C3948.8,714.2,3962.1,714.2,3975.8,714.2z"/>
		<path class="st2" d="M3590.9,678.4c16.2-0.6,30.6,13.2,30.2,30.3c-0.4,18.1-13.3,30.2-30.8,30.6c-16.5,0.3-30.6-14.2-30.5-30.3
			C3559.9,691.6,3573.4,678.3,3590.9,678.4z"/>
		<path class="st2" d="M4241,970.8c20.1,0,39.6,0,59.5,0c0,9.9,0,19.6,0,29.7c-19.9,0-39.6,0-59.5,0C4241,990.6,4241,981,4241,970.8
			z"/>
		<path class="st2" d="M4270.3,950.4c-5.2,0-10.3,0.2-15.4-0.1c-1.4-0.1-3.8-1.5-3.9-2.5c-0.8-8.9-0.3-19.1,10.4-24.7
			c11.3-6,24.7-1.1,28.4,11.9c1,3.6,0.8,7.6,1.1,11.3c0.3,3-1.2,4.2-4.1,4.2C4281.3,950.3,4275.8,950.4,4270.3,950.4z"/>
		<path d="M3971.2,1003.5c-0.2,8.7-7.6,15.8-16,15.4c-8.5-0.4-15.6-7.7-15.6-16.2c0.1-8.9,7.6-15.8,17-15.5
			C3964.8,987.4,3971.4,994.9,3971.2,1003.5z"/>
		<path d="M3975.8,714.2c-13.7,0-26.9,0-40.5,0c1.7-12,3.1-23.6,5.1-35.2c1-5.4,0.6-8.7-4.4-12.5c-9-6.8-12.2-16.9-10.3-27.9
			c1.9-11,8.6-18.9,19-22.9c18.9-7.3,35.7,5.1,40,20.2c3.3,11.5-1.5,25.2-11.5,32.1c-3,2.1-3.7,4.4-3.1,7.9
			C3972.2,688.5,3973.9,701.1,3975.8,714.2z"/>
	</g>
</g>
<g id="logo">
	<g id="logo-1" class="st0">
		<path class="st3" d="M80,305.2c1.1-31.8-4.7-24,23.2-34c44.4-15.9,89.9-29.2,131.6-51.8c21.4-11.6,42.1-24.7,62.9-37.5
			c6.2-3.8,11.5-5.3,18.1-0.6c57.3,41,122.1,65.8,188.3,87.6c7.3,2.4,14.4,5.5,21.8,7.5c6.3,1.7,8.2,5.2,8.4,11.5
			c1.5,68.7-11.5,134.4-38.9,197.4c-38.7,88.8-99.7,159.2-177.7,215.6c-7.4,5.3-13.1,5.6-20.6,0.2
			C191.9,624.9,120.6,525.9,90.8,398.6C83.6,367.5,80.6,335.8,80,305.2z"/>
		<path class="st4" d="M248.4,462.7c7.5-12.4,14.5-23.8,21.4-35.3c6.5-10.6,12.8-21.3,19.5-31.9c1.7-2.7,1.6-4.6-0.3-7.1
			c-4.9-6.7-9.4-13.7-14.2-20.4c-1.9-2.6-2.3-4.7-0.5-7.6c4.5-7.2,8.7-14.5,12.8-21.9c1.5-2.6,3.3-3.7,6.4-3.7
			c9.1,0.2,18.3-0.1,27.4,0.3c2,0.1,4.7,1.7,5.7,3.4c4.5,7.4,8.6,15,12.5,22.7c0.8,1.6,0.6,4.6-0.3,6.2c-4.4,7.6-9,15.1-13.9,22.4
			c-1.7,2.6-1.6,4.5,0,7.2c12.6,20.1,25,40.3,37.5,60.5c0.9,1.5,1.7,3.1,2.9,5.2C326.3,462.7,288,462.7,248.4,462.7z"/>
		<path class="st5" d="M192.2,547.8c8.9-14.6,16.9-27.9,25.1-41.4c-1.1-0.8-1.9-1.4-2.7-1.9c-12-6.2-17.7-16.4-17.7-29.5
			c0-53,0.4-106.1,0.1-159.1c-0.1-21.6,17.3-33.7,34.1-33.3c32.1,0.7,64.2-0.3,96.2,0.5c14,0.3,28.1,2.5,41.8,5.2
			c26.5,5.2,41.8,22.2,46.1,48.5c2.4,15,3.6,30.3,4.2,45.5c0.7,16.3,0.8,32.6-0.3,48.9c-1,14.6-1.5,29.8-9.4,42.8
			c-11.8,19.4-29.9,30.9-52.2,32.4c-27.6,1.9-55.4,1-83.2,1.5c-3.3,0.1-6.9,0.9-9.9,2.5c-22.6,11.6-45,23.5-67.5,35.3
			C195.9,546.1,194.7,546.6,192.2,547.8z"/>
		<path class="st5" d="M682.1,543.5c8.9-14.6,16.9-27.9,25.1-41.4c-1.1-0.8-1.9-1.4-2.7-1.9c-12-6.2-17.7-16.4-17.7-29.5
			c0-53,0.4-106.1,0.1-159.1c-0.1-21.6,17.3-33.7,34.1-33.3c32.1,0.7,64.2-0.3,96.2,0.5c14,0.3,28.1,2.5,41.8,5.2
			c26.5,5.2,41.8,22.2,46.1,48.5c2.4,15,3.6,30.3,4.2,45.5c0.7,16.3,0.8,32.6-0.3,48.9c-1,14.6-1.5,29.8-9.4,42.8
			c-11.8,19.4-29.9,30.9-52.2,32.4c-27.6,1.9-55.4,1-83.2,1.5c-3.3,0.1-6.9,0.9-9.9,2.5c-22.6,11.6-45,23.5-67.5,35.3
			C685.9,541.8,684.7,542.3,682.1,543.5z"/>
	</g>
	<g id="logo-2" class="st0">
		<path class="st3" d="M570.2,306.7c1.1-31.8-4.7-24,23.2-34c44.4-15.9,89.9-29.2,131.6-51.8c21.4-11.6,42.1-24.7,62.9-37.5
			c6.2-3.8,11.5-5.3,18.1-0.6c57.3,41,122.1,65.8,188.3,87.6c7.3,2.4,14.4,5.5,21.8,7.5c6.3,1.7,8.2,5.2,8.4,11.5
			c1.5,68.7-11.5,134.4-38.9,197.4C947,575.4,886,645.7,808,702.2c-7.4,5.3-13.1,5.6-20.6,0.2C682.1,626.4,610.8,527.4,581,400.1
			C573.8,369,570.8,337.3,570.2,306.7z"/>
		<path class="st5" d="M682.1,543.5c8.9-14.6,16.9-27.9,25.1-41.4c-1.1-0.8-1.9-1.4-2.7-1.9c-12-6.2-17.7-16.4-17.7-29.5
			c0-53,0.4-106.1,0.1-159.1c-0.1-21.6,17.3-33.7,34.1-33.3c32.1,0.7,64.2-0.3,96.2,0.5c14,0.3,28.1,2.5,41.8,5.2
			c26.5,5.2,41.8,22.2,46.1,48.5c2.4,15,3.6,30.3,4.2,45.5c0.7,16.3,0.8,32.6-0.3,48.9c-1,14.6-1.5,29.8-9.4,42.8
			c-11.8,19.4-29.9,30.9-52.2,32.4c-27.6,1.9-55.4,1-83.2,1.5c-3.3,0.1-6.9,0.9-9.9,2.5c-22.6,11.6-45,23.5-67.5,35.3
			C685.9,541.8,684.7,542.3,682.1,543.5z"/>
		<path class="st6" d="M798.5,457.6c-20.6-0.6-39.2-8.8-54.2-25.2c-1.8-2-2.1-3.9,0-5.2c3.6-2.3,7.3-4.6,11.3-6
			c5.5-2,11.3-2.9,16.8-4.7c2.8-0.9,5.5-2.4,7.8-4.1c3.3-2.5,4.4-6,2.9-10c-0.8-2.2-1.9-4.3-3-6.4c-4.8-9.6-8.7-19.5-9.6-30.3
			c-0.9-11.2,1.2-21.6,10.7-28.7c9.7-7.4,20.7-8,31.8-3.6c11.6,4.6,17.9,16.9,16.7,30.9c-1,11.3-4.7,21.8-9.7,31.9
			c-0.7,1.3-1.4,2.6-2,4c-2.8,6.3-1.6,11.2,4.7,14c6.1,2.7,12.7,4.1,19,6.3c4.5,1.6,9.2,3.1,13.1,5.7c3.8,2.4,3.5,3.7,0.5,7.1
			C841.6,448.3,820.8,457.6,798.5,457.6z"/>
	</g>
	<g id="logo-3" class="st0">
		<path class="st3" d="M1066.6,305.1c1.1-31.8-4.7-24,23.2-34c44.4-15.9,89.9-29.2,131.6-51.8c21.4-11.6,42.1-24.7,62.9-37.5
			c6.2-3.8,11.5-5.3,18.1-0.6c57.3,41,122.1,65.8,188.3,87.6c7.3,2.4,14.4,5.5,21.8,7.5c6.3,1.7,8.2,5.2,8.4,11.5
			c1.5,68.7-11.5,134.4-38.9,197.4c-38.7,88.8-99.7,159.2-177.7,215.6c-7.4,5.3-13.1,5.6-20.6,0.2
			c-105.2-75.9-176.6-174.9-206.3-302.2C1070.2,367.4,1067.2,335.7,1066.6,305.1z"/>
		<path class="st5" d="M1178.8,547.7c8.9-14.6,16.9-27.9,25.1-41.4c-1.1-0.8-1.9-1.4-2.7-1.9c-12-6.2-17.7-16.4-17.7-29.5
			c0-53,0.4-106.1,0.1-159.1c-0.1-21.6,17.3-33.7,34.1-33.3c32.1,0.7,64.2-0.3,96.2,0.5c14,0.3,28.1,2.5,41.8,5.2
			c26.5,5.2,41.8,22.2,46.1,48.5c2.4,15,3.6,30.3,4.2,45.5c0.7,16.3,0.8,32.6-0.3,48.9c-1,14.6-1.5,29.8-9.4,42.8
			c-11.8,19.4-29.9,30.9-52.2,32.4c-27.6,1.9-55.4,1-83.2,1.5c-3.3,0.1-6.9,0.9-9.9,2.5c-22.6,11.6-45,23.5-67.5,35.3
			C1182.5,546,1181.3,546.5,1178.8,547.7z"/>
		<path class="st1" d="M1298.3,319.9c2.2,0.5,4.5,0.8,6.6,1.6c11.5,4.3,18.5,12.5,20.2,24.7c2.1,15.8-7.9,29.8-23.5,33.4
			c-16.3,3.7-33.1-7.5-36-23.9c-2.9-16.4,7-31.3,23.2-35.1c1.1-0.3,2.3-0.5,3.4-0.7C1294.2,319.9,1296.3,319.9,1298.3,319.9z"/>
		<path class="st1" d="M1295.3,451.8c-19.8,0-39.7,0-59.5,0c-2.7,0-3.7-0.9-3.6-3.6c0.4-15.2,5.4-28.6,15.3-40.1
			c9.4-10.9,21.2-18,35.3-20.8c19-3.7,36.3,0.4,51.5,12.4c12.8,10,20.4,23.3,23.2,39.3c0.5,3,0.7,6.1,0.8,9.2
			c0.1,2.7-0.9,3.7-3.6,3.7C1334.9,451.8,1315.1,451.8,1295.3,451.8z"/>
	</g>
	<g id="logo-4" class="st0">
		<path class="st3" d="M1579.3,299c1.1-31.8-4.7-24,23.2-34c44.4-15.9,89.9-29.2,131.6-51.8c21.4-11.6,42.1-24.7,62.9-37.5
			c6.2-3.8,11.5-5.3,18.1-0.6c57.3,41,122.1,65.8,188.3,87.6c7.3,2.4,14.4,5.5,21.8,7.5c6.3,1.7,8.2,5.2,8.4,11.5
			c1.5,68.7-11.5,134.4-38.9,197.4C1956,567.6,1895.1,638,1817,694.4c-7.4,5.3-13.1,5.6-20.6,0.2
			c-105.2-75.9-176.6-174.9-206.3-302.2C1582.8,361.3,1579.9,329.6,1579.3,299z"/>
		<path class="st5" d="M1691.4,541.6c8.9-14.6,16.9-27.9,25.1-41.4c-1.1-0.8-1.9-1.4-2.7-1.9c-12-6.2-17.7-16.4-17.7-29.5
			c0-53,0.4-106.1,0.1-159.1c-0.1-21.6,17.3-33.7,34.1-33.3c32.1,0.7,64.2-0.3,96.2,0.5c14,0.3,28.1,2.5,41.8,5.2
			c26.5,5.2,41.8,22.2,46.1,48.5c2.4,15,3.6,30.3,4.2,45.5c0.7,16.3,0.8,32.6-0.3,48.9c-1,14.6-1.5,29.8-9.4,42.8
			c-11.8,19.4-29.9,30.9-52.2,32.4c-27.6,1.9-55.4,1-83.2,1.5c-3.3,0.1-6.9,0.9-9.9,2.5c-22.6,11.6-45,23.5-67.5,35.3
			C1695.2,539.9,1694,540.4,1691.4,541.6z"/>
		<path class="st5" d="M1811,314.8c2.2,0.5,4.5,0.8,6.6,1.6c11.5,4.3,18.5,12.5,20.2,24.7c2.1,15.8-7.9,29.8-23.5,33.4
			c-16.3,3.7-33.1-7.5-36-23.9c-2.9-16.4,7-31.3,23.2-35.1c1.1-0.3,2.3-0.5,3.4-0.7C1806.9,314.8,1809,314.8,1811,314.8z"/>
		<path class="st5" d="M1807.9,446.6c-19.8,0-39.7,0-59.5,0c-2.7,0-3.7-0.9-3.6-3.6c0.4-15.2,5.4-28.6,15.3-40.1
			c9.4-10.9,21.2-18,35.3-20.8c19-3.7,36.3,0.4,51.5,12.4c12.8,10,20.4,23.3,23.2,39.3c0.5,3,0.7,6.1,0.8,9.2
			c0.1,2.7-0.9,3.7-3.6,3.7C1847.6,446.6,1827.8,446.6,1807.9,446.6z"/>
	</g>
	<g id="logo-5" class="st0">
		<path class="st3" d="M2069.5,286.7c1.1-31.8-4.7-24,23.2-34c44.4-15.9,89.9-29.2,131.6-51.8c21.4-11.6,42.1-24.7,62.9-37.5
			c6.2-3.8,11.5-5.3,18.1-0.6c57.3,41,122.1,65.8,188.3,87.6c7.3,2.4,14.4,5.5,21.8,7.5c6.3,1.7,8.2,5.2,8.4,11.5
			c1.5,68.7-11.5,134.4-38.9,197.4c-38.7,88.8-99.7,159.2-177.7,215.6c-7.4,5.3-13.1,5.6-20.6,0.2
			c-105.2-75.9-176.6-174.9-206.3-302.2C2073.1,349,2070.1,317.3,2069.5,286.7z"/>
		<path class="st5" d="M2181.7,529.4c8.9-14.6,16.9-27.9,25.1-41.4c-1.1-0.8-1.9-1.4-2.7-1.9c-12-6.2-17.7-16.4-17.7-29.5
			c0-53,0.4-106.1,0.1-159.1c-0.1-21.6,17.3-33.7,34.1-33.3c32.1,0.7,64.2-0.3,96.2,0.5c14,0.3,28.1,2.5,41.8,5.2
			c26.5,5.2,41.8,22.2,46.1,48.5c2.4,15,3.6,30.3,4.2,45.5c0.7,16.3,0.8,32.6-0.3,48.9c-1,14.6-1.5,29.8-9.4,42.8
			c-11.8,19.4-29.9,30.9-52.2,32.4c-27.6,1.9-55.4,1-83.2,1.5c-3.3,0.1-6.9,0.9-9.9,2.5c-22.6,11.6-45,23.5-67.5,35.3
			C2185.4,527.6,2184.2,528.2,2181.7,529.4z"/>
		<path class="st1" d="M2251.6,425.5c-2.1,0-4.2,0-6.2,0c-5-0.1-10-0.8-14.9-1.6c-7.4-1.3-14.4-3.5-21.3-6.5
			c-0.7-0.3-1.5-0.6-2.2-0.9c-0.2-0.1-0.5-0.5-0.5-0.7c0-8.1-0.1-16.2,0-24.3c0.1-6.3,2.1-12,5.6-17.3c3.4-5,7.8-8.9,13.2-11.6
			c0.2-0.1,0.4-0.2,0.6-0.3c0.2-0.1,0.4-0.2,0.6-0.3c-10-16.7-0.8-34.1,11-39.8c5.2-2.5,10.5-3.5,16.2-2.8c5.7,0.7,10.7,3,15,6.8
			c4.3,3.8,7.1,8.5,8.6,14c12-8.6,24-8.6,36,0c2.7-9.1,8.3-15.7,17.2-19.1c6.9-2.7,13.8-2.6,20.6,0.3c7.9,3.3,13.3,9.2,15.9,17.4
			c2.6,8.1,1.5,16-2.8,23.1c2.2,1.4,4.5,2.7,6.6,4.3c5.7,4.3,9.6,9.9,11.8,16.6c1.1,3.5,1.6,7.1,1.6,10.8c0,7.4,0,14.8,0,22.2
			c0,0.2,0,0.4,0,0.6c-14.2,6.8-29.3,9.6-45.1,9.5c0,1.5,0,2.9,0,4.3c0,0.6-0.2,0.9-0.8,1.2c-5.4,2.3-10.8,4.5-16.5,5.8
			c-3.8,0.9-7.6,1.6-11.4,2.2c-6.1,1-12.4,1.2-18.6,1c-5-0.1-9.9-0.6-14.9-1.4c-6.4-1.1-12.7-2.7-18.8-5.1c-2.1-0.8-4.2-1.7-6.3-2.6
			c-0.5-0.2-0.6-0.4-0.6-1C2251.7,428.7,2251.6,427.2,2251.6,425.5z M2295.5,383.1c-3.2,0-6.3-0.1-9.5,0c-2.1,0.1-4.3,0.3-6.4,0.8
			c-5.1,1.2-9.2,3.9-12.6,7.8c-3.6,4.2-5.6,9-5.8,14.5c-0.2,5.9,0,11.8,0,17.7c0,0.4,0.1,0.7,0.5,0.8c1.2,0.4,2.4,0.9,3.7,1.3
			c9,3,18.2,4.5,27.7,4.7c5.6,0.1,11.2-0.2,16.8-1c6.6-0.9,13-2.5,19.2-4.9c0.8-0.3,0.9-0.7,0.9-1.4c0-5.1-0.1-10.2,0-15.3
			c0.1-6.9-2.2-12.8-7-17.7c-4.9-5-10.9-7.3-17.9-7.4C2301.8,383.1,2298.7,383.1,2295.5,383.1z M2251.6,416.1c0-0.3,0-0.7,0-1
			c0-2.1,0-4.2,0-6.2c0-3.3,0.2-6.6,1.1-9.8c2.5-9.1,7.8-16.1,16-20.9c1-0.6,2-1.1,2.9-1.5c-0.9-2.1-1.8-4.2-2.7-6.2
			c-0.1-0.3-0.5-0.5-0.8-0.6c-2.4-0.8-5-1.2-7.5-1.2c-6.8,0-13.5,0-20.3,0c-5.6,0-10.6,1.8-15,5.3c-6.1,4.9-9.2,11.4-9.3,19.2
			c-0.1,4.9,0,9.8,0,14.7c0,2.1,0,2.1,2,2.9c4.2,1.6,8.5,2.8,12.9,3.6c4.7,0.9,9.4,1.6,14.2,1.7
			C2247.2,416.1,2249.4,416.1,2251.6,416.1z M2339.4,416.2c0.6,0,1.1,0,1.6,0c7.5,0,15-0.7,22.3-2.6c3.7-0.9,7.3-2.2,11-3.4
			c0.6-0.2,0.9-0.5,0.9-1.2c0-5.1,0-10.3,0-15.4c0-2-0.2-4.1-0.6-6.1c-0.8-4-2.7-7.5-5.4-10.6c-4.6-5.2-10.3-8.1-17.2-8.4
			c-7.4-0.2-14.9-0.1-22.3,0c-2.3,0-4.5,0.5-6.7,1.3c-0.3,0.1-0.6,0.4-0.7,0.6c-0.9,2-1.8,4-2.7,6.1c0.1,0.1,0.4,0.2,0.7,0.4
			c3.2,1.5,6.1,3.5,8.7,6c7,6.8,10.5,15,10.6,24.8C2339.4,410.5,2339.4,413.2,2339.4,416.2z M2322.2,347c-0.2,10,8,18.6,18.5,18.6
			c10.2,0,18.4-8.1,18.5-18.3c0.1-10.3-8.2-18.7-18.4-18.7C2329.9,328.5,2322,337.5,2322.2,347z M2268.9,347c0.2-8.9-7-18.1-18-18.4
			c-9.7-0.3-18.6,7.1-19,17.8c-0.4,10,7.4,18.7,17.8,19.2C2259.8,365.9,2268.9,357.9,2268.9,347z M2314,361.7c0-10-8.2-18.3-18-18.5
			c-10.5-0.2-18.8,8.2-19,18.1c-0.2,10.3,7.9,18.7,18.2,18.9C2305.6,380.3,2314,372,2314,361.7z"/>
	</g>
	<g id="logo-6" class="st0">
		<path class="st3" d="M2573.2,283.4c1.1-31.8-4.7-24,23.2-34c44.4-15.9,89.9-29.2,131.6-51.8c21.4-11.6,42.1-24.7,62.9-37.5
			c6.2-3.8,11.5-5.3,18.1-0.6c57.3,41,122.1,65.8,188.3,87.6c7.3,2.4,14.4,5.5,21.8,7.5c6.3,1.7,8.2,5.2,8.4,11.5
			c1.5,68.7-11.5,134.4-38.9,197.4c-38.7,88.8-99.7,159.2-177.7,215.6c-7.4,5.3-13.1,5.6-20.6,0.2
			c-105.2-75.9-176.6-174.9-206.3-302.2C2576.7,345.7,2573.8,314,2573.2,283.4z"/>
		<path class="st5" d="M2685.3,526.1c8.9-14.6,16.9-27.9,25.1-41.4c-1.1-0.8-1.9-1.4-2.7-1.9c-12-6.2-17.7-16.4-17.7-29.5
			c0-53,0.4-106.1,0.1-159.1c-0.1-21.6,17.3-33.7,34.1-33.3c32.1,0.7,64.2-0.3,96.2,0.5c14,0.3,28.1,2.5,41.8,5.2
			c26.5,5.2,41.8,22.2,46.1,48.5c2.4,15,3.6,30.3,4.2,45.5c0.7,16.3,0.8,32.6-0.3,48.9c-1,14.6-1.5,29.8-9.4,42.8
			c-11.8,19.4-29.9,30.9-52.2,32.4c-27.6,1.9-55.4,1-83.2,1.5c-3.3,0.1-6.9,0.9-9.9,2.5c-22.6,11.6-45,23.5-67.5,35.3
			C2689.1,524.4,2687.9,524.9,2685.3,526.1z"/>
		<path class="st1" d="M2843.1,407.4c0.1,3.6,0.4,6.8,0.4,10.1c0,4.2-2.8,7-7,7c-23,0-46,0-69,0c-4.2,0-7-2.7-7.1-7
			c0-1.7,0-3.4,0.1-5.1c0.1-1.6,0.3-3.2,0.5-5.1c-0.6,0-1.2,0-1.8,0c-16.6,0-33.1,0-49.7,0c-5,0-7.6-2.6-7.6-7.6
			c-0.2-15.7,6.2-27.9,19.1-36.7c3.7-2.5,7.8-4.2,12.4-5.4c-8.2-5.2-12.1-12.4-11.5-21.9c0.4-6.1,3.1-11.2,7.7-15.2
			c8.8-7.7,22.1-6.6,29.9,2.3c8,9,8.1,26.4-6,34.9c12.1,3.3,21.1,10.6,26.9,21.5c3.7-1.5,7.4-3,11.1-4.6
			c-7.3-4.5-11.2-11.2-11.3-19.8c0-6.3,2.3-11.7,6.8-16.1c8.4-8.3,21.8-8.1,29.9,0.3c5.2,5.3,7.2,11.8,6.2,19.1
			c-1,7.3-4.9,12.8-11.1,16.5c3.7,1.5,7.4,3,11.1,4.6c5.8-10.8,14.7-18.1,27-21.5c-8.5-5.5-12.5-13.2-11.2-23.2
			c0.7-6,3.7-11,8.5-14.7c9.4-7.3,22.6-5.4,29.9,4.2c7.5,9.8,6.1,25.8-6.9,33.6c0.5,0.2,0.9,0.4,1.4,0.5c17.8,5.2,29.9,21.2,30,39.8
			c0,0.7,0,1.4,0,2.2c0,4.6-2.7,7.3-7.3,7.3c-16.7,0-33.3,0-50,0C2844.1,407.4,2843.6,407.4,2843.1,407.4z M2801.8,420.8
			c11.4,0,22.8,0,34.2,0c2.9,0,4-1.1,3.9-4c-0.1-2.7-0.1-5.4-0.6-8.1c-4.1-25.8-33.8-39.9-56.2-26.5c-13,7.7-19.2,19.4-19.1,34.5
			c0,3.1,1,4.1,4.1,4.1C2779.3,420.8,2790.5,420.8,2801.8,420.8z M2826.3,381.4c0.4,0.3,0.7,0.6,1,0.8c6.7,5.3,11.5,11.9,14.1,20.1
			c0.4,1.2,0.9,1.5,2.1,1.5c13,0,26,0,39,0c4.1,0,8.1,0,12.2,0c2.4,0,3.6-1.2,3.7-3.7c0-0.7,0-1.4,0-2.2c-0.3-26-25.3-44-50-35.8
			C2838.4,365.4,2831.2,372,2826.3,381.4z M2777.3,381.1c0-0.1-0.2-0.4-0.3-0.7c-9.1-17.6-31-25.2-49.1-16.9
			c-14.5,6.6-23.2,21-22.5,37c0.1,2.1,1.4,3.3,3.6,3.3c17.2,0,34.4,0,51.6,0c1,0,1.4-0.3,1.7-1.3c1.5-4.8,3.7-9.2,7-13.1
			C2771.8,386.6,2774.6,384,2777.3,381.1z M2803.5,373.5c4.4-0.1,9.1-2.6,12.6-7.2c6.1-8,4.7-19.8-3-26.1c-9.6-7.9-23.3-4-28,7.9
			C2780.4,360.1,2789.3,373.6,2803.5,373.5z M2761.5,337.7c-0.1-1.2-0.2-2.5-0.5-3.7c-1.7-9.4-10.6-16.1-19.6-14.9
			c-10.6,1.4-17.8,11.6-15.6,22.3c1.6,8.1,8.2,14.3,15.8,15C2752.5,357.3,2761.4,348.9,2761.5,337.7z M2842.5,338.5
			c0,2.1,0.5,5,1.9,7.7c3.3,6.4,8.5,10.1,15.8,10.2c7.2,0.1,12.5-3.3,15.9-9.5c6.4-11.6-0.8-26.1-13.8-27.8
			C2851.9,317.8,2842.5,326.6,2842.5,338.5z"/>
	</g>
	<g id="logo-7" class="st0">
		<path class="st3" d="M91.1,994.5c1.1-31.8-4.7-24,23.2-34c44.4-15.9,89.9-29.2,131.6-51.8c21.4-11.6,42.1-24.7,62.9-37.5
			c6.2-3.8,11.5-5.3,18.1-0.6c57.3,41,122.1,65.8,188.3,87.6c7.3,2.4,14.4,5.5,21.8,7.5c6.3,1.7,8.2,5.2,8.4,11.5
			c1.5,68.7-11.5,134.4-38.9,197.4c-38.7,88.8-99.7,159.2-177.7,215.6c-7.4,5.3-13.1,5.6-20.6,0.2
			c-105.2-75.9-176.6-174.9-206.3-302.2C94.6,1056.7,91.7,1025.1,91.1,994.5z"/>
		<path class="st7" d="M238.1,1178.4c9.9-16.3,19-31.3,28.2-46.4c8.5-14,16.9-28,25.6-41.8c2.2-3.5,2.1-6-0.3-9.3
			c-6.4-8.8-12.3-18-18.7-26.8c-2.5-3.4-3-6.2-0.6-10c5.9-9.4,11.4-19.1,16.8-28.8c1.9-3.4,4.3-4.9,8.3-4.8c12,0.3,24-0.1,36,0.4
			c2.6,0.1,6.2,2.2,7.5,4.4c5.9,9.7,11.3,19.6,16.4,29.8c1.1,2.2,0.8,6-0.4,8.1c-5.7,10-11.9,19.8-18.2,29.5c-2.2,3.4-2.2,6,0,9.4
			c16.6,26.4,32.9,53,49.3,79.5c1.2,2,2.3,4,3.8,6.8C340.5,1178.4,290,1178.4,238.1,1178.4z"/>
		<path class="st5" d="M384.8,1270.7c-0.2-1.1-0.3-1.6-0.4-2.1c-3.2-14.2-6.4-28.3-9.6-42.5c-1-4.6-0.2-5.8,4.4-5.8
			c17-0.3,34-0.5,51.1-0.9c20.7-0.5,35.1-12.7,37.9-33.1c2.5-18.9,3.9-37.9,5.8-56.9c3.1-31.6,6.2-63.2,9.5-94.8
			c2.1-19.9-9.9-39.4-29.1-45.1c-8-2.3-16.6-2.6-25-3.3c-19.8-1.6-39.6-2.8-59.4-4.3c-28.4-2-56.9-4.1-85.3-6.2
			c-23.1-1.7-46.3-3.4-69.4-5c-6.7-0.5-13.6-1.4-20.1-0.5c-19.7,2.9-39.2,24.1-41.8,45.1c-0.7,5.9,0.3,12.1,1.1,18
			c4.3,29.9,8.9,59.8,13.4,89.7c2.7,17.8,6.1,35.5,7.8,53.3c1.3,13.4,7.5,23.3,17.3,31.5c14.7,12.3,31.7,16.7,50.8,15.5
			c22.2-1.4,44.4-1.4,66.7-1.9c1.7,0,3.7,0.6,5.1,1.6c15.6,10.6,31.1,21.4,46.6,32.1C369.6,1260.2,377,1265.3,384.8,1270.7z"/>
	</g>
	<g id="logo-8" class="st0">
		<path class="st3" d="M581.3,996c1.1-31.8-4.7-24,23.2-34c44.4-15.9,89.9-29.2,131.6-51.8c21.4-11.6,42.1-24.7,62.9-37.5
			c6.2-3.8,11.5-5.3,18.1-0.6c57.3,41,122.1,65.8,188.3,87.6c7.3,2.4,14.4,5.5,21.8,7.5c6.3,1.7,8.2,5.2,8.4,11.5
			c1.5,68.7-11.5,134.4-38.9,197.4C958,1264.6,897.1,1335,819,1391.4c-7.4,5.3-13.1,5.6-20.6,0.2
			c-105.2-75.9-176.6-174.9-206.3-302.2C584.8,1058.3,581.9,1026.6,581.3,996z"/>
		<path class="st8" d="M805.5,1185.6c-29.4-0.9-56.1-12.6-77.4-36c-2.6-2.9-3-5.6,0-7.5c5.1-3.3,10.4-6.6,16.1-8.6
			c7.8-2.8,16.1-4.1,24-6.7c4-1.3,7.8-3.4,11.2-5.9c4.8-3.5,6.2-8.6,4.1-14.2c-1.2-3.1-2.7-6.1-4.2-9.1
			c-6.9-13.7-12.4-27.9-13.7-43.3c-1.3-16,1.7-30.8,15.2-41c13.9-10.5,29.6-11.4,45.4-5.1c16.5,6.6,25.5,24.2,23.8,44.1
			c-1.4,16.2-6.7,31.1-13.8,45.5c-0.9,1.9-2,3.8-2.9,5.7c-4,9-2.3,16,6.6,20c8.7,3.9,18.1,5.8,27.1,9c6.4,2.3,13.1,4.5,18.8,8.1
			c5.5,3.5,5,5.2,0.7,10.1C867,1172.4,837.3,1185.6,805.5,1185.6z"/>
		<path class="st5" d="M875.1,1270.7c-0.2-1.1-0.3-1.6-0.4-2.1c-3.2-14.2-6.4-28.3-9.6-42.5c-1-4.6-0.2-5.8,4.4-5.8
			c17-0.3,34-0.5,51.1-0.9c20.7-0.5,35.1-12.7,37.9-33.1c2.5-18.9,3.9-37.9,5.8-56.9c3.1-31.6,6.2-63.2,9.5-94.8
			c2.1-19.9-9.9-39.4-29.1-45.1c-8-2.3-16.6-2.6-25-3.3c-19.8-1.6-39.6-2.8-59.4-4.3c-28.4-2-56.9-4.1-85.3-6.2
			c-23.1-1.7-46.3-3.4-69.4-5c-6.7-0.5-13.6-1.4-20.1-0.5c-19.7,2.9-39.2,24.1-41.8,45.1c-0.7,5.9,0.3,12.1,1.1,18
			c4.3,29.9,8.9,59.8,13.4,89.7c2.7,17.8,6.1,35.5,7.8,53.3c1.3,13.4,7.5,23.3,17.3,31.5c14.7,12.3,31.7,16.7,50.8,15.5
			c22.2-1.4,44.4-1.4,66.7-1.9c1.7,0,3.7,0.6,5.1,1.6c15.6,10.6,31.1,21.4,46.6,32.1C859.8,1260.2,867.2,1265.3,875.1,1270.7z"/>
	</g>
	<g id="logo-9" class="st0">
		<path class="st3" d="M1077.7,994.4c1.1-31.8-4.7-24,23.2-34c44.4-15.9,89.9-29.2,131.6-51.8c21.4-11.6,42.1-24.7,62.9-37.5
			c6.2-3.8,11.5-5.3,18.1-0.6c57.3,41,122.1,65.8,188.3,87.6c7.3,2.4,14.4,5.5,21.8,7.5c6.3,1.7,8.2,5.2,8.4,11.5
			c1.5,68.7-11.5,134.4-38.9,197.4c-38.7,88.8-99.7,159.2-177.7,215.6c-7.4,5.3-13.1,5.6-20.6,0.2
			c-105.2-75.9-176.6-174.9-206.3-302.2C1081.2,1056.7,1078.3,1025,1077.7,994.4z"/>
		<path class="st1" d="M1312.9,1003.6c3,0.7,6.1,1.1,9,2.2c15.8,5.9,25.4,17.1,27.6,33.8c2.9,21.6-10.9,40.8-32.1,45.7
			c-22.3,5.1-45.4-10.2-49.3-32.7c-3.9-22.4,9.5-42.8,31.7-48c1.5-0.4,3.1-0.6,4.6-0.9C1307.3,1003.6,1310.1,1003.6,1312.9,1003.6z"
			/>
		<path class="st1" d="M1308.7,1184.2c-27.2,0-54.3,0-81.5,0c-3.7,0-5-1.3-4.9-5c0.5-20.8,7.4-39.2,20.9-54.9
			c12.9-15,29-24.7,48.4-28.4c26-5,49.7,0.6,70.6,17c17.5,13.7,27.9,31.9,31.7,53.8c0.7,4.1,0.9,8.4,1.1,12.6c0.2,3.7-1.2,5-4.9,5
			C1363,1184.2,1335.8,1184.2,1308.7,1184.2z"/>
		<path class="st5" d="M1372.1,1270.7c-0.2-1.1-0.3-1.6-0.4-2.1c-3.2-14.2-6.4-28.3-9.6-42.5c-1-4.6-0.2-5.8,4.4-5.8
			c17-0.3,34-0.5,51.1-0.9c20.7-0.5,35.1-12.7,37.9-33.1c2.5-18.9,3.9-37.9,5.8-56.9c3.1-31.6,6.2-63.2,9.5-94.8
			c2.1-19.9-9.9-39.4-29.1-45.1c-8-2.3-16.6-2.6-25-3.3c-19.8-1.6-39.6-2.8-59.4-4.3c-28.4-2-56.9-4.1-85.3-6.2
			c-23.1-1.7-46.3-3.4-69.4-5c-6.7-0.5-13.6-1.4-20.1-0.5c-19.7,2.9-39.2,24.1-41.8,45.1c-0.7,5.9,0.3,12.1,1.1,18
			c4.3,29.9,8.9,59.8,13.4,89.7c2.7,17.8,6.1,35.5,7.8,53.3c1.3,13.4,7.5,23.3,17.3,31.5c14.7,12.3,31.7,16.7,50.8,15.5
			c22.2-1.4,44.4-1.4,66.7-1.9c1.7,0,3.7,0.6,5.1,1.6c15.6,10.6,31.1,21.4,46.6,32.1C1356.9,1260.2,1364.3,1265.3,1372.1,1270.7z"/>
	</g>
	<g id="logo-10" class="st0">
		<path class="st3" d="M1590.4,988.3c1.1-31.8-4.7-24,23.2-34c44.4-15.9,89.9-29.2,131.6-51.8c21.4-11.6,42.1-24.7,62.9-37.5
			c6.2-3.8,11.5-5.3,18.1-0.6c57.3,41,122.1,65.8,188.3,87.6c7.3,2.4,14.4,5.5,21.8,7.5c6.3,1.7,8.2,5.2,8.4,11.5
			c1.5,68.7-11.5,134.4-38.9,197.4c-38.7,88.8-99.7,159.2-177.7,215.6c-7.4,5.3-13.1,5.6-20.6,0.2
			c-105.2-75.9-176.6-174.9-206.3-302.2C1593.9,1050.5,1590.9,1018.9,1590.4,988.3z"/>
		<path class="st9" d="M1822.1,1013.3c2.8,0.7,5.8,1.1,8.5,2.1c14.9,5.5,24,16.1,26.1,31.9c2.7,20.4-10.2,38.5-30.3,43.1
			c-21,4.8-42.8-9.6-46.5-30.9c-3.7-21.2,9-40.4,29.9-45.3c1.4-0.3,2.9-0.6,4.4-0.9C1816.7,1013.3,1819.4,1013.3,1822.1,1013.3z"/>
		<path class="st9" d="M1818.1,1183.7c-25.6,0-51.2,0-76.8,0c-3.5,0-4.7-1.2-4.6-4.7c0.5-19.6,6.9-36.9,19.7-51.8
			c12.1-14.1,27.4-23.3,45.7-26.8c24.5-4.7,46.9,0.5,66.6,16c16.5,13,26.4,30.1,29.9,50.7c0.7,3.9,0.9,7.9,1.1,11.9
			c0.2,3.5-1.1,4.7-4.6,4.7C1869.3,1183.7,1843.7,1183.7,1818.1,1183.7z"/>
		<path class="st5" d="M1879.1,1269.2c-0.2-1.1-0.3-1.6-0.4-2.1c-3.2-14.2-6.4-28.3-9.6-42.5c-1-4.6-0.2-5.8,4.4-5.8
			c17-0.3,34-0.5,51.1-0.9c20.7-0.5,35.1-12.7,37.9-33.1c2.5-18.9,3.9-37.9,5.8-56.9c3.1-31.6,6.2-63.2,9.5-94.8
			c2.1-19.9-9.9-39.4-29.1-45.1c-8-2.3-16.6-2.6-25-3.3c-19.8-1.6-39.6-2.8-59.4-4.3c-28.4-2-56.9-4.1-85.3-6.2
			c-23.1-1.7-46.3-3.4-69.4-5c-6.7-0.5-13.6-1.4-20.1-0.5c-19.7,2.9-39.2,24.1-41.8,45.1c-0.7,5.9,0.3,12.1,1.1,18
			c4.3,29.9,8.9,59.8,13.4,89.7c2.7,17.8,6.1,35.5,7.8,53.3c1.3,13.4,7.5,23.3,17.3,31.5c14.7,12.3,31.7,16.7,50.8,15.5
			c22.2-1.4,44.4-1.4,66.7-1.9c1.7,0,3.7,0.6,5.1,1.6c15.6,10.6,31.1,21.4,46.6,32.1C1863.9,1258.7,1871.3,1263.8,1879.1,1269.2z"/>
	</g>
	<g id="logo-11" class="st0">
		<path class="st3" d="M2080.6,976c1.1-31.8-4.7-24,23.2-34c44.4-15.9,89.9-29.2,131.6-51.8c21.4-11.6,42.1-24.7,62.9-37.5
			c6.2-3.8,11.5-5.3,18.1-0.6c57.3,41,122.1,65.8,188.3,87.6c7.3,2.4,14.4,5.5,21.8,7.5c6.3,1.7,8.2,5.2,8.4,11.5
			c1.5,68.7-11.5,134.4-38.9,197.4c-38.7,88.8-99.7,159.2-177.7,215.6c-7.4,5.3-13.1,5.6-20.6,0.2
			c-105.2-75.9-176.6-174.9-206.3-302.2C2084.1,1038.3,2081.2,1006.6,2080.6,976z"/>
		<path class="st1" d="M2245.9,1151.8c-2.9,0-5.6,0-8.3,0c-6.8-0.1-13.5-1-20.2-2.2c-10-1.8-19.5-4.8-28.8-8.8c-1-0.4-2-0.8-3-1.3
			c-0.3-0.2-0.7-0.6-0.7-1c0-11-0.2-21.9,0-32.9c0.2-8.5,2.9-16.3,7.6-23.4c4.6-6.8,10.5-12,17.8-15.7c0.3-0.1,0.5-0.3,0.8-0.4
			c0.3-0.1,0.6-0.2,0.8-0.4c-13.5-22.6-1.1-46.1,14.8-53.9c7-3.4,14.2-4.8,21.9-3.9c7.7,0.9,14.5,4,20.3,9.2
			c5.8,5.1,9.7,11.5,11.7,18.9c16.3-11.6,32.5-11.6,48.7,0c3.6-12.3,11.2-21.2,23.3-25.9c9.3-3.6,18.7-3.4,27.9,0.4
			c10.7,4.5,18,12.4,21.5,23.5c3.5,11,2,21.6-3.8,31.3c3,1.9,6.1,3.6,8.9,5.7c7.7,5.8,13,13.4,16,22.5c1.5,4.7,2.2,9.6,2.1,14.6
			c0,10,0,20,0,30c0,0.3,0,0.5,0,0.8c-19.3,9.2-39.6,13-61,12.9c0,2,0,3.9,0,5.8c0,0.9-0.2,1.3-1,1.6c-7.3,3.1-14.6,6.1-22.3,7.9
			c-5.1,1.2-10.2,2.1-15.4,3c-8.3,1.3-16.7,1.6-25.1,1.4c-6.7-0.2-13.5-0.8-20.1-1.9c-8.7-1.5-17.2-3.7-25.4-6.9
			c-2.9-1.1-5.7-2.3-8.5-3.5c-0.6-0.2-0.9-0.6-0.8-1.3C2245.9,1156.1,2245.9,1154.1,2245.9,1151.8z M2305.1,1094.5
			c-4.3,0-8.6-0.1-12.8,0c-2.9,0.1-5.9,0.4-8.7,1c-6.8,1.6-12.5,5.3-17.1,10.6c-4.8,5.6-7.5,12.2-7.8,19.6c-0.3,8-0.1,16-0.1,23.9
			c0,0.6,0.1,0.9,0.7,1.1c1.7,0.6,3.3,1.3,5,1.8c12.1,4.1,24.6,6,37.4,6.3c7.6,0.2,15.2-0.2,22.7-1.3c8.9-1.3,17.6-3.4,26-6.6
			c1-0.4,1.3-0.9,1.3-1.9c0-6.9-0.1-13.8,0-20.7c0.1-9.3-3-17.3-9.4-23.9c-6.6-6.8-14.8-9.9-24.2-10
			C2313.7,1094.4,2309.4,1094.5,2305.1,1094.5z M2245.8,1139.1c0-0.5,0-0.9,0-1.3c0-2.8,0-5.6,0-8.4c-0.1-4.5,0.3-8.9,1.5-13.3
			c3.4-12.4,10.6-21.8,21.7-28.3c1.3-0.8,2.7-1.4,3.9-2.1c-1.2-2.8-2.4-5.6-3.7-8.4c-0.2-0.4-0.7-0.7-1.1-0.9
			c-3.3-1.1-6.7-1.7-10.2-1.7c-9.1,0-18.3,0-27.4,0c-7.6,0-14.4,2.4-20.3,7.1c-8.3,6.7-12.4,15.4-12.5,26c-0.1,6.6,0,13.3,0,19.9
			c0,2.9,0,2.9,2.8,4c5.6,2.2,11.5,3.8,17.4,4.9c6.4,1.2,12.8,2.1,19.2,2.3C2239.9,1139.1,2242.8,1139.1,2245.8,1139.1z
			 M2364.5,1139.2c0.8,0,1.5,0,2.1,0c10.2,0,20.2-1,30.1-3.5c5-1.3,9.9-3,14.9-4.5c0.8-0.3,1.2-0.7,1.2-1.7
			c-0.1-6.9,0-13.9-0.1-20.8c0-2.8-0.3-5.6-0.8-8.3c-1.1-5.4-3.6-10.2-7.3-14.4c-6.2-7-14-11-23.3-11.3c-10.1-0.3-20.1-0.1-30.2,0
			c-3.1,0-6.1,0.6-9,1.7c-0.4,0.1-0.8,0.5-1,0.8c-1.2,2.7-2.4,5.5-3.7,8.3c0.2,0.1,0.6,0.3,0.9,0.5c4.4,2,8.3,4.7,11.8,8.1
			c9.5,9.2,14.3,20.3,14.4,33.5C2364.5,1131.5,2364.5,1135.2,2364.5,1139.2z M2341.2,1045.6c-0.3,13.5,10.8,25.2,25,25.1
			c13.8,0,24.8-11,25-24.7c0.2-14-11.1-25.3-24.9-25.3C2351.7,1020.7,2341,1032.7,2341.2,1045.6z M2269.1,1045.6
			c0.2-12-9.5-24.4-24.3-24.9c-13.1-0.4-25.1,9.6-25.7,24.1c-0.6,13.6,10,25.3,24.1,25.9C2256.8,1071.3,2269.3,1060.3,2269.1,1045.6
			z M2330.2,1065.5c0.1-13.5-11.1-24.7-24.3-25c-14.2-0.3-25.5,11.1-25.7,24.5c-0.2,13.9,10.7,25.3,24.6,25.6
			C2318.8,1090.7,2330.1,1079.5,2330.2,1065.5z"/>
		<path class="st5" d="M2370.9,1270.7c-0.2-1.1-0.3-1.6-0.4-2.1c-3.2-14.2-6.4-28.3-9.6-42.5c-1-4.6-0.2-5.8,4.4-5.8
			c17-0.3,34-0.5,51.1-0.9c20.7-0.5,35.1-12.7,37.9-33.1c2.5-18.9,3.9-37.9,5.8-56.9c3.1-31.6,6.2-63.2,9.5-94.8
			c2.1-19.9-9.9-39.4-29.1-45.1c-8-2.3-16.6-2.6-25-3.3c-19.8-1.6-39.6-2.8-59.4-4.3c-28.4-2-56.9-4.1-85.3-6.2
			c-23.1-1.7-46.3-3.4-69.4-5c-6.7-0.5-13.6-1.4-20.1-0.5c-19.7,2.9-39.2,24.1-41.8,45.1c-0.7,5.9,0.3,12.1,1.1,18
			c4.3,29.9,8.9,59.8,13.4,89.7c2.7,17.8,6.1,35.5,7.8,53.3c1.3,13.4,7.5,23.3,17.3,31.5c14.7,12.3,31.7,16.7,50.8,15.5
			c22.2-1.4,44.4-1.4,66.7-1.9c1.7,0,3.7,0.6,5.1,1.6c15.6,10.6,31.1,21.4,46.6,32.1C2355.7,1260.2,2363.1,1265.3,2370.9,1270.7z"/>
	</g>
	<g id="logo-12" class="st0">
		<path class="st3" d="M2584.2,972.7c1.1-31.8-4.7-24,23.2-34c44.4-15.9,89.9-29.2,131.6-51.8c21.4-11.6,42.1-24.7,62.9-37.5
			c6.2-3.8,11.5-5.3,18.1-0.6c57.3,41,122.1,65.8,188.3,87.6c7.3,2.4,14.4,5.5,21.8,7.5c6.3,1.7,8.2,5.2,8.4,11.5
			c1.5,68.7-11.5,134.4-38.9,197.4c-38.7,88.8-99.7,159.2-177.7,215.6c-7.4,5.3-13.1,5.6-20.6,0.2
			c-105.2-75.9-176.6-174.9-206.3-302.2C2587.8,1035,2584.8,1003.3,2584.2,972.7z"/>
		<path class="st1" d="M2862.8,1151.4c0.2,4.8,0.5,9.2,0.5,13.6c0,5.7-3.8,9.4-9.5,9.4c-31.1,0-62.1,0-93.2,0
			c-5.7,0-9.4-3.7-9.5-9.4c0-2.3,0-4.6,0.1-6.8c0.1-2.2,0.4-4.4,0.7-6.8c-0.9,0-1.6,0-2.4,0c-22.4,0-44.8,0-67.1,0
			c-6.7,0-10.2-3.5-10.3-10.2c-0.2-21.1,8.3-37.7,25.8-49.6c5-3.4,10.5-5.7,16.8-7.3c-11-7-16.4-16.8-15.5-29.6
			c0.6-8.2,4.2-15.1,10.4-20.6c11.9-10.4,29.8-8.9,40.4,3.1c10.8,12.2,10.9,35.7-8.1,47.1c16.4,4.5,28.4,14.3,36.4,29
			c5-2.1,9.9-4.1,15-6.2c-9.8-6.1-15.2-15.1-15.2-26.8c0-8.4,3.1-15.8,9.1-21.8c11.3-11.1,29.4-11,40.4,0.4c7,7.2,9.8,15.9,8.4,25.8
			c-1.3,9.8-6.6,17.2-15,22.3c5,2.1,9.9,4.1,15,6.2c7.9-14.6,19.8-24.4,36.5-29c-11.5-7.5-16.9-17.8-15.2-31.3
			c1-8.1,5-14.8,11.5-19.8c12.7-9.8,30.4-7.3,40.3,5.7c10.1,13.3,8.2,34.9-9.3,45.4c0.7,0.3,1.3,0.5,1.8,0.6
			c24,7,40.4,28.7,40.5,53.7c0,1,0,2,0,2.9c0,6.2-3.7,9.9-9.8,9.9c-22.5,0-45,0-67.5,0C2864.2,1151.4,2863.4,1151.4,2862.8,1151.4z
			 M2807,1169.5c15.4,0,30.8,0,46.2,0c3.9,0,5.4-1.5,5.3-5.3c-0.1-3.6-0.2-7.3-0.8-10.9c-5.6-34.9-45.6-53.8-76-35.8
			c-17.5,10.4-25.9,26.2-25.8,46.5c0,4.2,1.4,5.5,5.5,5.5C2776.6,1169.5,2791.8,1169.5,2807,1169.5z M2840.1,1116.3
			c0.6,0.5,1,0.8,1.4,1.1c9,7.1,15.6,16.1,19.1,27.1c0.5,1.6,1.3,2,2.9,2c17.6-0.1,35.1,0,52.7,0c5.5,0,11,0,16.4,0
			c3.3,0,4.9-1.6,4.9-4.9c0-1,0-2,0-2.9c-0.5-35.1-34.2-59.4-67.5-48.4C2856.5,1094.7,2846.8,1103.6,2840.1,1116.3z M2774,1115.9
			c0-0.1-0.2-0.6-0.5-1c-12.3-23.8-41.9-34-66.3-22.9c-19.5,8.9-31.4,28.4-30.3,50c0.1,2.9,1.8,4.4,4.9,4.4c23.2,0,46.4,0,69.6,0
			c1.4,0,1.9-0.4,2.3-1.7c2-6.5,5-12.5,9.4-17.6C2766.5,1123.3,2770.3,1119.8,2774,1115.9z M2809.3,1105.7
			c5.9-0.1,12.3-3.5,17.1-9.8c8.2-10.8,6.4-26.7-4-35.2c-13-10.7-31.5-5.4-37.8,10.7C2778.2,1087.6,2790.2,1105.7,2809.3,1105.7z
			 M2752.6,1057.3c-0.2-1.7-0.3-3.4-0.6-5c-2.3-12.7-14.3-21.7-26.5-20.1c-14.3,1.9-24,15.7-21.1,30.1c2.2,11,11,19.3,21.3,20.2
			C2740.4,1083.8,2752.5,1072.4,2752.6,1057.3z M2861.9,1058.4c0.1,2.9,0.7,6.8,2.6,10.4c4.5,8.6,11.5,13.6,21.3,13.8
			c9.7,0.1,16.9-4.5,21.5-12.9c8.7-15.7-1.1-35.2-18.6-37.5C2874.7,1030.4,2862,1042.3,2861.9,1058.4z"/>
		<path class="st5" d="M2870.6,1271.8c-0.2-1.1-0.3-1.6-0.4-2.1c-3.2-14.2-6.4-28.3-9.6-42.5c-1-4.6-0.2-5.8,4.4-5.8
			c17-0.3,34-0.5,51.1-0.9c20.7-0.5,35.1-12.7,37.9-33.1c2.5-18.9,3.9-37.9,5.8-56.9c3.1-31.6,6.2-63.2,9.5-94.8
			c2.1-19.9-9.9-39.4-29.1-45.1c-8-2.3-16.6-2.6-25-3.3c-19.8-1.6-39.6-2.8-59.4-4.3c-28.4-2-56.9-4.1-85.3-6.2
			c-23.1-1.7-46.3-3.4-69.4-5c-6.7-0.5-13.6-1.4-20.1-0.5c-19.7,2.9-39.2,24.1-41.8,45.1c-0.7,5.9,0.3,12.1,1.1,18
			c4.3,29.9,8.9,59.8,13.4,89.7c2.7,17.8,6.1,35.5,7.8,53.3c1.3,13.4,7.5,23.3,17.3,31.5c14.7,12.3,31.7,16.7,50.8,15.5
			c22.2-1.4,44.4-1.4,66.7-1.9c1.7,0,3.7,0.6,5.1,1.6c15.6,10.6,31.1,21.4,46.6,32.1C2855.4,1261.4,2862.8,1266.5,2870.6,1271.8z"/>
	</g>
	<g id="logo-13" class="st0">
		<path class="st3" d="M88,1667.8c1.1-31.8-4.7-24,23.2-34c44.4-15.9,89.9-29.2,131.6-51.8c21.4-11.6,42.1-24.7,62.9-37.5
			c6.2-3.8,11.5-5.3,18.1-0.6c57.3,41,122.1,65.8,188.3,87.6c7.3,2.4,14.4,5.5,21.8,7.5c6.3,1.7,8.2,5.2,8.4,11.5
			c1.5,68.7-11.5,134.4-38.9,197.4c-38.7,88.8-99.7,159.2-177.7,215.6c-7.4,5.3-13.1,5.6-20.6,0.2
			c-105.2-75.9-176.6-174.9-206.3-302.2C91.5,1730,88.6,1698.4,88,1667.8z"/>
		<path class="st1" d="M274.6,1915c-16.9-2.7-32.9-4.1-48.2-8c-52.2-13.1-83.7-48.1-86.9-97.1c-2-31.2,9.2-59.1,27.2-83.9
			c44.3-61,105.6-94.5,179.1-106.7c30.3-5.1,60.6-3.8,90.2,5.1c74.2,22.4,103.2,89.5,67.6,158.6c-28.5,55.4-75.5,90.5-132.5,111.5
			c-22.4,8.3-40.7,19-55,38c-12,16-25.9,30.8-39.5,45.5c-3.6,3.9-9.6,5.5-14.5,8.2c-0.3-5.3-1.8-10.8-0.8-15.7
			c3.2-14.8,7.4-29.4,11.2-44.1C273.3,1922.7,273.9,1918.7,274.6,1915z M281.1,1947.6c0.7,0.5,1.4,1,2,1.6
			c5.9-6.7,12.2-13.1,17.7-20.1c17.4-22.1,35.5-42.9,65.8-47.2c5.5-0.8,10.7-4.1,15.9-6.5c46.6-22.4,86.1-52.7,109.7-100.1
			c22.4-45,13.9-91.2-21.2-117.9c-20.9-15.9-44.9-23.6-70.8-25.7c-66.1-5.2-124.8,15.1-177,54.7c-29.3,22.2-52.6,49.5-64.6,85
			c-16.4,48.3,2.1,91.9,48.1,113.9c23.1,11,47.8,14.7,73,14.6c10.5,0,13.2,4,10.5,13.5C287,1924.7,284.1,1936.2,281.1,1947.6z"/>
		<path class="st7" d="M259.6,1845.6c9.9-16.3,19-31.3,28.2-46.4c8.5-14,16.9-28,25.6-41.8c2.2-3.5,2.1-6-0.3-9.3
			c-6.4-8.8-12.3-18-18.7-26.8c-2.5-3.4-3-6.2-0.6-10c5.9-9.4,11.4-19.1,16.8-28.8c1.9-3.4,4.3-4.9,8.3-4.8c12,0.3,24-0.1,36,0.4
			c2.6,0.1,6.2,2.2,7.5,4.4c5.9,9.7,11.3,19.6,16.4,29.8c1.1,2.2,0.8,6-0.4,8.1c-5.7,10-11.9,19.8-18.2,29.5c-2.2,3.4-2.2,6,0,9.4
			c16.6,26.4,32.9,53,49.3,79.5c1.2,2,2.3,4,3.8,6.8C361.9,1845.6,311.5,1845.6,259.6,1845.6z"/>
	</g>
	<g id="logo-14" class="st0">
		<path class="st3" d="M578.2,1669.3c1.1-31.8-4.7-24,23.2-34c44.4-15.9,89.9-29.2,131.6-51.8c21.4-11.6,42.1-24.7,62.9-37.5
			c6.2-3.8,11.5-5.3,18.1-0.6c57.3,41,122.1,65.8,188.3,87.6c7.3,2.4,14.4,5.5,21.8,7.5c6.3,1.7,8.2,5.2,8.4,11.5
			c1.5,68.7-11.5,134.4-38.9,197.4C955,1938,894,2008.3,816,2064.8c-7.4,5.3-13.1,5.6-20.6,0.2C690.1,1989,618.8,1890,589,1762.7
			C581.8,1731.6,578.8,1699.9,578.2,1669.3z"/>
		<path class="st1" d="M766,1912.3c-16.9-2.7-32.9-4.1-48.2-8c-52.2-13.1-83.7-48.1-86.9-97.1c-2-31.2,9.2-59.1,27.2-83.9
			c44.3-61,105.6-94.5,179.1-106.7c30.3-5.1,60.6-3.8,90.2,5.1c74.2,22.4,103.2,89.5,67.6,158.6c-28.5,55.4-75.5,90.5-132.5,111.5
			c-22.4,8.3-40.7,19-55,38c-12,16-25.9,30.8-39.5,45.5c-3.6,3.9-9.6,5.5-14.5,8.2c-0.3-5.3-1.8-10.8-0.8-15.7
			c3.2-14.8,7.4-29.4,11.2-44.1C764.7,1919.9,765.3,1916,766,1912.3z M772.5,1944.9c0.7,0.5,1.4,1,2,1.6
			c5.9-6.7,12.2-13.1,17.7-20.1c17.4-22.1,35.5-42.9,65.8-47.2c5.5-0.8,10.7-4.1,15.9-6.5c46.6-22.4,86.1-52.7,109.7-100.1
			c22.4-45,13.9-91.2-21.2-117.9c-20.9-15.9-44.9-23.6-70.8-25.7c-66.1-5.2-124.8,15.1-177,54.7c-29.3,22.2-52.6,49.5-64.6,85
			c-16.4,48.3,2.1,91.9,48.1,113.9c23.1,11,47.8,14.7,73,14.6c10.5,0,13.2,4,10.5,13.5C778.4,1922,775.5,1933.4,772.5,1944.9z"/>
		<path class="st8" d="M825.4,1843.6c-29.4-0.9-56.1-12.6-77.4-36c-2.6-2.9-3-5.6,0-7.5c5.1-3.3,10.4-6.6,16.1-8.6
			c7.8-2.8,16.1-4.1,24-6.7c4-1.3,7.8-3.4,11.2-5.9c4.8-3.5,6.2-8.6,4.1-14.2c-1.2-3.1-2.7-6.1-4.2-9.1
			c-6.9-13.7-12.4-27.9-13.7-43.3c-1.3-16,1.7-30.8,15.2-41c13.9-10.5,29.6-11.4,45.4-5.1c16.5,6.6,25.5,24.2,23.8,44.1
			c-1.4,16.2-6.7,31.1-13.8,45.5c-0.9,1.9-2,3.8-2.9,5.7c-4,9-2.3,16,6.6,20c8.7,3.9,18.1,5.8,27.1,9c6.4,2.3,13.1,4.5,18.8,8.1
			c5.5,3.5,5,5.2,0.7,10.1C887,1830.4,857.2,1843.6,825.4,1843.6z"/>
	</g>
	<g id="logo-15" class="st0">
		<path class="st3" d="M1074.6,1667.7c1.1-31.8-4.7-24,23.2-34c44.4-15.9,89.9-29.2,131.6-51.8c21.4-11.6,42.1-24.7,62.9-37.5
			c6.2-3.8,11.5-5.3,18.1-0.6c57.3,41,122.1,65.8,188.3,87.6c7.3,2.4,14.4,5.5,21.8,7.5c6.3,1.7,8.2,5.2,8.4,11.5
			c1.5,68.7-11.5,134.4-38.9,197.4c-38.7,88.8-99.7,159.2-177.7,215.6c-7.4,5.3-13.1,5.6-20.6,0.2
			c-105.2-75.9-176.6-174.9-206.3-302.2C1078.2,1730,1075.2,1698.3,1074.6,1667.7z"/>
		<path class="st1" d="M1309.9,1676.9c3,0.7,6.1,1.1,9,2.2c15.8,5.9,25.4,17.1,27.6,33.8c2.9,21.6-10.9,40.8-32.1,45.7
			c-22.3,5.1-45.4-10.2-49.3-32.7c-3.9-22.4,9.5-42.8,31.7-48c1.5-0.4,3.1-0.6,4.6-0.9C1304.2,1676.9,1307.1,1676.9,1309.9,1676.9z"
			/>
		<path class="st1" d="M1305.6,1857.5c-27.2,0-54.3,0-81.5,0c-3.7,0-5-1.3-4.9-5c0.5-20.8,7.4-39.2,20.9-54.9
			c12.9-15,29-24.7,48.4-28.4c26-5,49.7,0.6,70.6,17c17.5,13.7,27.9,31.9,31.7,53.8c0.7,4.1,0.9,8.4,1.1,12.6c0.2,3.7-1.2,5-4.9,5
			C1360,1857.5,1332.8,1857.5,1305.6,1857.5z"/>
		<path class="st10" d="M1316.6,1945.7c19.8-13.3,33.8-30.6,40.7-53.1c2.4-7.8,6.3-10.2,14-8.8c11.2,2.1,22.4,4.2,33.7,5.1
			c9,0.7,18.8,1.7,27.2-1c18.2-5.8,26.2-23.5,21.7-42.9c-7.6-33.5-17.7-66.7-9.2-101.7c3.4-14.1,6.5-28.3,9.6-42.5
			c5.7-26-14.5-47.7-40.8-44.1c-9.5,1.3-18.9,3.3-28.4,4.1c-31.1,2.5-62.2,6.7-93.3,6.1c-27.5-0.5-55-6.1-82.4-9.9
			c-34-4.6-51.9,14.8-45,48.5c6.7,32.3,13.8,64.7,7.2,98c-3.1,15.6-6.7,31.3-8.5,47.1c-2.9,25.8,16.3,43.5,42.1,39.8
			c6.3-0.9,12.6-2,19-2.7c18.8-1.9,37.7-3.9,56.5-5.4c15.4-1.3,30.9-2.1,46.4-3.1c6.8-0.4,9.9,3.1,9.3,9.7
			c-0.4,4.9-0.5,10.1-2.2,14.6C1328.7,1917.4,1322.7,1931,1316.6,1945.7z"/>
	</g>
	<g id="logo-16" class="st0">
		<path class="st3" d="M1587.3,1661.6c1.1-31.8-4.7-24,23.2-34c44.4-15.9,89.9-29.2,131.6-51.8c21.4-11.6,42.1-24.7,62.9-37.5
			c6.2-3.8,11.5-5.3,18.1-0.6c57.3,41,122.1,65.8,188.3,87.6c7.3,2.4,14.4,5.5,21.8,7.5c6.3,1.7,8.2,5.2,8.4,11.5
			c1.5,68.7-11.5,134.4-38.9,197.4c-38.7,88.8-99.7,159.2-177.7,215.6c-7.4,5.3-13.1,5.6-20.6,0.2
			c-105.2-75.9-176.6-174.9-206.3-302.2C1590.8,1723.9,1587.9,1692.2,1587.3,1661.6z"/>
		<path class="st9" d="M1819,1686.7c2.8,0.7,5.8,1.1,8.5,2.1c14.9,5.5,24,16.1,26.1,31.9c2.7,20.4-10.2,38.5-30.3,43.1
			c-21,4.8-42.8-9.6-46.5-30.9c-3.7-21.2,9-40.4,29.9-45.3c1.4-0.3,2.9-0.6,4.4-0.9C1813.7,1686.7,1816.4,1686.7,1819,1686.7z"/>
		<path class="st9" d="M1815,1857c-25.6,0-51.2,0-76.8,0c-3.5,0-4.7-1.2-4.6-4.7c0.5-19.6,6.9-36.9,19.7-51.8
			c12.1-14.1,27.4-23.3,45.7-26.8c24.5-4.7,46.9,0.5,66.6,16c16.5,13,26.4,30.1,29.9,50.7c0.7,3.9,0.9,7.9,1.1,11.9
			c0.2,3.5-1.1,4.7-4.6,4.7C1866.3,1857,1840.6,1857,1815,1857z"/>
		<path class="st10" d="M1825.2,1938c19.8-13.3,33.8-30.6,40.7-53.1c2.4-7.8,6.3-10.2,14-8.8c11.2,2.1,22.4,4.2,33.7,5.1
			c9,0.7,18.8,1.7,27.2-1c18.2-5.8,26.2-23.5,21.7-42.9c-7.6-33.5-17.7-66.7-9.2-101.7c3.4-14.1,6.5-28.3,9.6-42.5
			c5.7-26-14.5-47.7-40.8-44.1c-9.5,1.3-18.9,3.3-28.4,4.1c-31.1,2.5-62.2,6.7-93.3,6.1c-27.5-0.5-55-6.1-82.4-9.9
			c-34-4.6-51.9,14.8-45,48.5c6.7,32.3,13.8,64.7,7.2,98c-3.1,15.6-6.7,31.3-8.5,47.1c-2.9,25.8,16.3,43.5,42.1,39.8
			c6.3-0.9,12.6-2,19-2.7c18.8-1.9,37.7-3.9,56.5-5.4c15.4-1.3,30.9-2.1,46.4-3.1c6.8-0.4,9.9,3.1,9.3,9.7
			c-0.4,4.9-0.5,10.1-2.2,14.6C1837.3,1909.7,1831.3,1923.3,1825.2,1938z"/>
	</g>
	<g id="logo-17">
		<path class="st11" d="M1417.9,1128c1.1-31.8-4.7-24,23.2-34c44.4-15.9,89.9-29.2,131.6-51.8c21.4-11.6,42.1-24.7,62.9-37.5
			c6.2-3.8,11.5-5.3,18.1-0.6c57.3,41,122.1,65.8,188.3,87.6c7.3,2.4,14.4,5.5,21.8,7.5c6.3,1.7,8.2,5.2,8.4,11.5
			c1.5,68.7-11.5,134.4-38.9,197.4c-38.7,88.8-99.7,159.2-177.7,215.6c-7.4,5.3-13.1,5.6-20.6,0.2
			c-105.2-75.9-176.6-174.9-206.3-302.2C1421.4,1190.3,1418.5,1158.6,1417.9,1128z"/>
		<path class="st12" d="M1583.2,1303.9c-2.9,0-5.6,0-8.3,0c-6.8-0.1-13.5-1-20.2-2.2c-10-1.8-19.5-4.8-28.8-8.8c-1-0.4-2-0.8-3-1.3
			c-0.3-0.2-0.7-0.6-0.7-1c0-11-0.2-21.9,0-32.9c0.2-8.5,2.9-16.3,7.6-23.4c4.6-6.8,10.5-12,17.8-15.7c0.3-0.1,0.5-0.3,0.8-0.4
			c0.3-0.1,0.6-0.2,0.8-0.4c-13.5-22.6-1.1-46.1,14.8-53.9c7-3.4,14.2-4.8,21.9-3.9c7.7,0.9,14.5,4,20.3,9.2
			c5.8,5.1,9.7,11.5,11.7,18.9c16.3-11.6,32.5-11.6,48.7,0c3.6-12.3,11.2-21.2,23.3-25.9c9.3-3.6,18.7-3.4,27.9,0.4
			c10.7,4.5,18,12.4,21.5,23.5c3.5,11,2,21.6-3.8,31.3c3,1.9,6.1,3.6,8.9,5.7c7.7,5.8,13,13.4,16,22.5c1.5,4.7,2.2,9.6,2.1,14.6
			c0,10,0,20,0,30c0,0.3,0,0.5,0,0.8c-19.3,9.2-39.6,13-61,12.9c0,2,0,3.9,0,5.8c0,0.9-0.2,1.3-1,1.6c-7.3,3.1-14.6,6.1-22.3,7.9
			c-5.1,1.2-10.2,2.1-15.4,3c-8.3,1.3-16.7,1.6-25.1,1.4c-6.7-0.2-13.5-0.8-20.1-1.9c-8.7-1.5-17.2-3.7-25.4-6.9
			c-2.9-1.1-5.7-2.3-8.5-3.5c-0.6-0.2-0.9-0.6-0.8-1.3C1583.2,1308.2,1583.2,1306.2,1583.2,1303.9z M1642.5,1246.5
			c-4.3,0-8.6-0.1-12.8,0c-2.9,0.1-5.9,0.4-8.7,1c-6.8,1.6-12.5,5.3-17.1,10.6c-4.8,5.6-7.5,12.2-7.8,19.6c-0.3,8-0.1,16-0.1,23.9
			c0,0.6,0.1,0.9,0.7,1.1c1.7,0.6,3.3,1.3,5,1.8c12.1,4.1,24.6,6,37.4,6.3c7.6,0.2,15.2-0.2,22.7-1.3c8.9-1.3,17.6-3.4,26-6.6
			c1-0.4,1.3-0.9,1.3-1.9c0-6.9-0.1-13.8,0-20.7c0.1-9.3-3-17.3-9.4-23.9c-6.6-6.8-14.8-9.9-24.2-10
			C1651.1,1246.5,1646.8,1246.5,1642.5,1246.5z M1583.2,1291.1c0-0.5,0-0.9,0-1.3c0-2.8,0-5.6,0-8.4c-0.1-4.5,0.3-8.9,1.5-13.3
			c3.4-12.4,10.6-21.8,21.7-28.3c1.3-0.8,2.7-1.4,3.9-2.1c-1.2-2.8-2.4-5.6-3.7-8.4c-0.2-0.4-0.7-0.7-1.1-0.9
			c-3.3-1.1-6.7-1.7-10.2-1.7c-9.1,0-18.3,0-27.4,0c-7.6,0-14.4,2.4-20.3,7.1c-8.3,6.7-12.4,15.4-12.5,26c-0.1,6.6,0,13.3,0,19.9
			c0,2.9,0,2.9,2.8,4c5.6,2.2,11.5,3.8,17.4,4.9c6.4,1.2,12.8,2.1,19.2,2.3C1577.2,1291.2,1580.1,1291.1,1583.2,1291.1z
			 M1701.9,1291.2c0.8,0,1.5,0,2.1,0c10.2,0,20.2-1,30.1-3.5c5-1.3,9.9-3,14.9-4.5c0.8-0.3,1.2-0.7,1.2-1.7
			c-0.1-6.9,0-13.9-0.1-20.8c0-2.8-0.3-5.6-0.8-8.3c-1.1-5.4-3.6-10.2-7.3-14.4c-6.2-7-14-11-23.3-11.3c-10.1-0.3-20.1-0.1-30.2,0
			c-3.1,0-6.1,0.6-9,1.7c-0.4,0.1-0.8,0.5-1,0.8c-1.2,2.7-2.4,5.5-3.7,8.3c0.2,0.1,0.6,0.3,0.9,0.5c4.4,2,8.3,4.7,11.8,8.1
			c9.5,9.2,14.3,20.3,14.4,33.5C1701.9,1283.5,1701.9,1287.3,1701.9,1291.2z M1678.6,1197.6c-0.3,13.5,10.8,25.2,25,25.1
			c13.8,0,24.8-11,25-24.7c0.2-14-11.1-25.3-24.9-25.3C1689.1,1172.7,1678.4,1184.8,1678.6,1197.6z M1606.5,1197.7
			c0.2-12-9.5-24.4-24.3-24.9c-13.1-0.4-25.1,9.6-25.7,24.1c-0.6,13.6,10,25.3,24.1,25.9C1594.2,1223.3,1606.6,1212.4,1606.5,1197.7
			z M1667.6,1217.5c0.1-13.5-11.1-24.7-24.3-25c-14.2-0.3-25.5,11.1-25.7,24.5c-0.2,13.9,10.7,25.3,24.6,25.6
			C1656.2,1242.7,1667.5,1231.5,1667.6,1217.5z"/>
		<path class="st13" d="M1645.4,1121.5c37,0,74.1-0.2,111.1,0c32.6,0.2,52.3,22.6,48.4,55c-5.6,46.7-11.5,93.5-17.4,140.2
			c-3.3,26.6-21.6,42.6-48.8,42.8c-15.2,0.1-30.3,0.7-45.5-0.2c-9.1-0.5-12.3,3.2-14.4,11.4c-4.8,18.7-10.3,37.2-16.2,55.6
			c-1.2,3.6-5.4,6.3-8.1,9.4c-2.7-3.2-6.7-6-7.9-9.8c-6.1-19.2-11.8-38.6-17-58c-1.7-6.6-4.8-8.6-11.4-8.5
			c-22.7,0.3-45.5,0.2-68.2,0.1c-27.5-0.2-44.8-14.4-48.5-41.4c-6.6-49.2-12.8-98.4-18.4-147.7c-2.9-25.8,18-48.4,44.9-48.8
			C1567.1,1121.1,1606.2,1121.5,1645.4,1121.5C1645.4,1121.5,1645.4,1121.5,1645.4,1121.5z"/>
	</g>
	<g id="logo-18" class="st0">
		<path class="st3" d="M2581.2,1646c1.1-31.8-4.7-24,23.2-34c44.4-15.9,89.9-29.2,131.6-51.8c21.4-11.6,42.1-24.7,62.9-37.5
			c6.2-3.8,11.5-5.3,18.1-0.6c57.3,41,122.1,65.8,188.3,87.6c7.3,2.4,14.4,5.5,21.8,7.5c6.3,1.7,8.2,5.2,8.4,11.5
			c1.5,68.7-11.5,134.4-38.9,197.4c-38.7,88.8-99.7,159.2-177.7,215.6c-7.4,5.3-13.1,5.6-20.6,0.2
			c-105.2-75.9-176.6-174.9-206.3-302.2C2584.7,1708.3,2581.8,1676.6,2581.2,1646z"/>
		<path class="st1" d="M2859.8,1824.7c0.2,4.8,0.5,9.2,0.5,13.6c0,5.7-3.8,9.4-9.5,9.4c-31.1,0-62.1,0-93.2,0
			c-5.7,0-9.4-3.7-9.5-9.4c0-2.3,0-4.6,0.1-6.8c0.1-2.2,0.4-4.4,0.7-6.8c-0.9,0-1.6,0-2.4,0c-22.4,0-44.8,0-67.1,0
			c-6.7,0-10.2-3.5-10.3-10.2c-0.2-21.1,8.3-37.7,25.8-49.6c5-3.4,10.5-5.7,16.8-7.3c-11-7-16.4-16.8-15.5-29.6
			c0.6-8.2,4.2-15.1,10.4-20.6c11.9-10.4,29.8-8.9,40.4,3.1c10.8,12.2,10.9,35.7-8.1,47.1c16.4,4.5,28.4,14.3,36.4,29
			c5-2.1,9.9-4.1,15-6.2c-9.8-6.1-15.2-15.1-15.2-26.8c0-8.4,3.1-15.8,9.1-21.8c11.3-11.1,29.4-11,40.4,0.4c7,7.2,9.8,15.9,8.4,25.8
			c-1.3,9.8-6.6,17.2-15,22.3c5,2.1,9.9,4.1,15,6.2c7.9-14.6,19.8-24.4,36.5-29c-11.5-7.5-16.9-17.8-15.2-31.3
			c1-8.1,5-14.8,11.5-19.8c12.7-9.8,30.4-7.3,40.3,5.7c10.1,13.3,8.2,34.9-9.3,45.4c0.7,0.3,1.3,0.5,1.8,0.6
			c24,7,40.4,28.7,40.5,53.7c0,1,0,2,0,2.9c0,6.2-3.7,9.9-9.8,9.9c-22.5,0-45,0-67.5,0C2861.2,1824.7,2860.4,1824.7,2859.8,1824.7z
			 M2804,1842.9c15.4,0,30.8,0,46.2,0c3.9,0,5.4-1.5,5.3-5.3c-0.1-3.6-0.2-7.3-0.8-10.9c-5.6-34.9-45.6-53.8-76-35.8
			c-17.5,10.4-25.9,26.2-25.8,46.5c0,4.2,1.4,5.5,5.5,5.5C2773.6,1842.9,2788.8,1842.9,2804,1842.9z M2837.1,1789.6
			c0.6,0.5,1,0.8,1.4,1.1c9,7.1,15.6,16.1,19.1,27.1c0.5,1.6,1.3,2,2.9,2c17.6-0.1,35.1,0,52.7,0c5.5,0,11,0,16.4,0
			c3.3,0,4.9-1.6,4.9-4.9c0-1,0-2,0-2.9c-0.5-35.1-34.2-59.4-67.5-48.4C2853.5,1768,2843.7,1776.9,2837.1,1789.6z M2771,1789.2
			c0-0.1-0.2-0.6-0.5-1c-12.3-23.8-41.9-34-66.3-22.9c-19.5,8.9-31.4,28.4-30.3,50c0.1,2.9,1.8,4.4,4.9,4.4c23.2,0,46.4,0,69.6,0
			c1.4,0,1.9-0.4,2.3-1.7c2-6.5,5-12.5,9.4-17.6C2763.5,1796.6,2767.2,1793.1,2771,1789.2z M2806.3,1779c5.9-0.1,12.3-3.5,17.1-9.8
			c8.2-10.8,6.4-26.7-4-35.2c-13-10.7-31.5-5.4-37.8,10.7C2775.2,1760.9,2787.2,1779,2806.3,1779z M2749.6,1730.7
			c-0.2-1.7-0.3-3.4-0.6-5c-2.3-12.7-14.3-21.7-26.5-20.1c-14.3,1.9-24,15.7-21.1,30.1c2.2,11,11,19.3,21.3,20.2
			C2737.4,1757.1,2749.4,1745.7,2749.6,1730.7z M2858.9,1731.7c0.1,2.9,0.7,6.8,2.6,10.4c4.5,8.6,11.5,13.6,21.3,13.8
			c9.7,0.1,16.9-4.5,21.5-12.9c8.7-15.7-1.1-35.2-18.6-37.5C2871.7,1703.7,2859,1715.6,2858.9,1731.7z"/>
		<path class="st5" d="M2803.4,1636.6c37,0,74.1-0.2,111.1,0c32.6,0.2,52.3,22.6,48.4,55c-5.6,46.7-11.5,93.5-17.4,140.2
			c-3.3,26.6-21.6,42.6-48.8,42.8c-15.2,0.1-30.3,0.7-45.5-0.2c-9.1-0.5-12.3,3.2-14.4,11.4c-4.8,18.7-10.3,37.2-16.2,55.6
			c-1.2,3.6-5.4,6.3-8.1,9.4c-2.7-3.2-6.7-6-7.9-9.8c-6.1-19.2-11.8-38.6-17-58c-1.7-6.6-4.8-8.6-11.4-8.5
			c-22.7,0.3-45.5,0.2-68.2,0.1c-27.5-0.2-44.8-14.4-48.5-41.4c-6.6-49.2-12.8-98.4-18.4-147.7c-2.9-25.8,18-48.4,44.9-48.8
			C2725.1,1636.3,2764.2,1636.7,2803.4,1636.6C2803.4,1636.7,2803.4,1636.7,2803.4,1636.6z"/>
	</g>
	<g id="logo-19_00000023270784576888192060000005946595513048494978_" class="st0">
		<path class="st1" d="M390.6,2238.3c40.1,0.1,75.6,4.1,110.8,11.9c42.9,9.5,83.8,24.6,123,44.3c4.4,2.2,8.7,4.4,13,6.8
			c1,0.6,2,2.2,1.9,3.3c-1.6,16.2-2.8,32.5-5.4,48.6c-3.1,19.4-6.7,38.8-11.1,57.9c-7.2,31.8-17.4,62.7-30.2,92.8
			c-14.6,34.2-32.6,66.6-54.3,96.8c-27.4,38.1-59.4,71.8-96.5,100.4c-17.1,13.2-35.2,25-52.8,37.5c-1.8,1.3-2.9,1.2-4.6-0.1
			c-18.1-13.8-37-26.8-54.4-41.5c-18.5-15.7-36.2-32.5-53.2-49.9c-24.6-25.1-46-52.9-64.8-82.6c-19.6-30.9-35.6-63.5-47.9-97.9
			c-10-27.9-17.3-56.6-22.3-85.8c-4.2-24.7-6.6-49.5-7.5-74.6c-0.1-3.1,0.8-4.5,3.6-5.8c30.9-14.4,62.5-27,95.2-37
			c24.9-7.6,50-14,75.7-17.8c18.4-2.7,36.9-4.5,55.4-6.3C374.3,2238.6,384.5,2238.6,390.6,2238.3z M386.2,2264.8
			c-14.9,1.3-30.3,2.5-45.7,4c-25.8,2.5-51,7.9-75.9,14.8c-34.1,9.4-67.1,22-99.1,37c-3.6,1.7-4.3,3.6-4.2,7.1
			c1,23.6,3.4,47.1,7.7,70.4c5.7,30.9,14.4,61,26.3,90.1c12,29.3,27.2,56.9,45.1,82.9c19.8,28.8,42.7,54.9,68,79
			c23.2,22.1,48.1,41.9,74.3,60.3c3.1,2.2,5.3,2.4,8.6,0.3c31.5-20.4,60.9-43.3,87.2-70.1c32.2-32.9,58.8-69.8,79.4-110.9
			c24.9-49.7,40.3-102.5,48.5-157.4c2.3-15.4,3.7-31,5.6-46.5c0.4-2.8-1.1-3.7-3.2-4.8c-24.2-12.8-49.2-23.6-75.1-32.3
			c-30.9-10.3-62.4-17.6-94.9-20.5C421.5,2266.5,404.1,2265.9,386.2,2264.8z"/>
		<path class="st1" d="M395.6,2343.4c3,0.7,6.1,1.1,9,2.2c15.8,5.9,25.4,17.1,27.6,33.8c2.9,21.6-10.9,40.8-32.1,45.7
			c-22.3,5.1-45.4-10.2-49.3-32.7c-3.9-22.4,9.5-42.8,31.7-48c1.5-0.4,3.1-0.6,4.6-0.9C389.9,2343.4,392.7,2343.4,395.6,2343.4z"/>
		<path class="st1" d="M391.3,2524c-27.2,0-54.3,0-81.5,0c-3.7,0-5-1.3-4.9-5c0.5-20.8,7.4-39.2,20.9-54.9
			c12.9-15,29-24.7,48.4-28.4c26-5,49.7,0.6,70.6,17c17.5,13.7,27.9,31.9,31.7,53.8c0.7,4.1,0.9,8.4,1.1,12.6c0.2,3.7-1.2,5-4.9,5
			C445.7,2524,418.5,2524,391.3,2524z"/>
		<path class="st5" d="M277.9,2596c8.9-14.6,16.9-27.9,25.1-41.4c-1.1-0.8-1.9-1.4-2.7-1.9c-12-6.2-17.7-16.4-17.7-29.5
			c0-53,0.4-106.1,0.1-159.1c-0.1-21.6,17.3-33.7,34.1-33.3c32.1,0.7,64.2-0.3,96.2,0.5c14,0.3,28.1,2.5,41.8,5.2
			c26.5,5.2,41.8,22.2,46.1,48.5c2.4,15,3.6,30.3,4.2,45.5c0.7,16.3,0.8,32.6-0.3,48.9c-1,14.6-1.5,29.8-9.4,42.8
			c-11.8,19.4-29.9,30.9-52.2,32.4c-27.6,1.9-55.4,1-83.2,1.5c-3.3,0.1-6.9,0.9-9.9,2.5c-22.6,11.6-45,23.5-67.5,35.3
			C281.7,2594.3,280.5,2594.8,277.9,2596z"/>
	</g>
	<g id="logo-20_00000178176522152235934930000001935096077659835044_" class="st0">
		<path class="st1" d="M960.5,2238.3c40.1,0.1,75.6,4.1,110.8,11.9c42.9,9.5,83.8,24.6,123,44.3c4.4,2.2,8.7,4.4,13,6.8
			c1,0.6,2,2.2,1.9,3.3c-1.6,16.2-2.8,32.5-5.4,48.6c-3.1,19.4-6.7,38.8-11.1,57.9c-7.2,31.8-17.4,62.7-30.2,92.8
			c-14.6,34.2-32.6,66.6-54.3,96.8c-27.4,38.1-59.4,71.8-96.5,100.4c-17.1,13.2-35.2,25-52.8,37.5c-1.8,1.3-2.9,1.2-4.6-0.1
			c-18.1-13.8-37-26.8-54.4-41.5c-18.5-15.7-36.2-32.5-53.2-49.9c-24.6-25.1-46-52.9-64.8-82.6c-19.6-30.9-35.6-63.5-47.9-97.9
			c-10-27.9-17.3-56.6-22.3-85.8c-4.2-24.7-6.6-49.5-7.5-74.6c-0.1-3.1,0.8-4.5,3.6-5.8c30.9-14.4,62.5-27,95.2-37
			c24.9-7.6,50-14,75.7-17.8c18.4-2.7,36.9-4.5,55.4-6.3C944.2,2238.6,954.4,2238.6,960.5,2238.3z M956,2264.8
			c-14.9,1.3-30.3,2.5-45.7,4c-25.8,2.5-51,7.9-75.9,14.8c-34.1,9.4-67.1,22-99.1,37c-3.6,1.7-4.3,3.6-4.2,7.1
			c1,23.6,3.4,47.1,7.7,70.4c5.7,30.9,14.4,61,26.3,90.1c12,29.3,27.2,56.9,45.1,82.9c19.8,28.8,42.7,54.9,68,79
			c23.2,22.1,48.1,41.9,74.3,60.3c3.1,2.2,5.3,2.4,8.6,0.3c31.5-20.4,60.9-43.3,87.2-70.1c32.2-32.9,58.8-69.8,79.4-110.9
			c24.9-49.7,40.3-102.5,48.5-157.4c2.3-15.4,3.7-31,5.6-46.5c0.4-2.8-1.1-3.7-3.2-4.8c-24.2-12.8-49.2-23.6-75.1-32.3
			c-30.9-10.3-62.4-17.6-94.9-20.5C991.4,2266.5,974,2265.9,956,2264.8z"/>
		<path class="st5" d="M1012.5,2615.5c-0.2-1.1-0.3-1.6-0.4-2.1c-3.2-14.2-6.4-28.3-9.6-42.5c-1-4.6-0.2-5.8,4.4-5.8
			c17-0.3,34-0.5,51.1-0.9c20.7-0.5,35.1-12.7,37.9-33.1c2.5-18.9,3.9-37.9,5.8-56.9c3.1-31.6,6.2-63.2,9.5-94.8
			c2.1-19.9-9.9-39.4-29.1-45.1c-8-2.3-16.6-2.6-25-3.3c-19.8-1.6-39.6-2.8-59.4-4.3c-28.4-2-56.9-4.1-85.3-6.2
			c-23.1-1.7-46.3-3.4-69.4-5c-6.7-0.5-13.6-1.4-20.1-0.5c-19.7,2.9-39.2,24.1-41.8,45.1c-0.7,5.9,0.3,12.1,1.1,18
			c4.3,29.9,8.9,59.8,13.4,89.7c2.7,17.8,6.1,35.5,7.8,53.3c1.3,13.4,7.5,23.3,17.3,31.5c14.7,12.3,31.7,16.7,50.8,15.5
			c22.2-1.4,44.4-1.4,66.7-1.9c1.7,0,3.7,0.6,5.1,1.6c15.6,10.6,31.1,21.4,46.6,32.1C997.3,2605,1004.6,2610.1,1012.5,2615.5z"/>
		<path class="st1" d="M944,2343.4c3,0.7,6.1,1.1,9,2.2c15.8,5.9,25.4,17.1,27.6,33.8c2.9,21.6-10.9,40.8-32.1,45.7
			c-22.3,5.1-45.4-10.2-49.3-32.7c-3.9-22.4,9.5-42.8,31.7-48c1.5-0.4,3.1-0.6,4.6-0.9C938.4,2343.4,941.2,2343.4,944,2343.4z"/>
		<path class="st1" d="M939.8,2524c-27.2,0-54.3,0-81.5,0c-3.7,0-5-1.3-4.9-5c0.5-20.8,7.4-39.2,20.9-54.9
			c12.9-15,29-24.7,48.4-28.4c26-5,49.7,0.6,70.6,17c17.5,13.7,27.9,31.9,31.7,53.8c0.7,4.1,0.9,8.4,1.1,12.6c0.2,3.7-1.2,5-4.9,5
			C994.1,2524,966.9,2524,939.8,2524z"/>
	</g>
	<g id="logo-21_00000086670456911239276250000005676753812430738841_" class="st0">
		<path class="st1" d="M1530.4,2235.2c40.1,0.1,75.6,4.1,110.8,11.9c42.9,9.5,83.8,24.6,123,44.3c4.4,2.2,8.7,4.4,13,6.8
			c1,0.6,2,2.2,1.9,3.3c-1.6,16.2-2.8,32.5-5.4,48.6c-3.1,19.4-6.7,38.8-11.1,57.9c-7.2,31.8-17.4,62.7-30.2,92.8
			c-14.6,34.2-32.6,66.6-54.3,96.8c-27.4,38.1-59.4,71.8-96.5,100.4c-17.1,13.2-35.2,25-52.8,37.5c-1.8,1.3-2.9,1.2-4.6-0.1
			c-18.1-13.8-37-26.8-54.4-41.5c-18.5-15.7-36.2-32.5-53.2-49.9c-24.6-25.1-46-52.9-64.8-82.6c-19.6-30.9-35.6-63.5-47.9-97.9
			c-10-27.9-17.3-56.6-22.3-85.8c-4.2-24.7-6.6-49.5-7.5-74.6c-0.1-3.1,0.8-4.5,3.6-5.8c30.9-14.4,62.5-27,95.2-37
			c24.9-7.6,50-14,75.7-17.8c18.4-2.7,36.9-4.5,55.4-6.3C1514.1,2235.6,1524.3,2235.5,1530.4,2235.2z M1525.9,2261.7
			c-14.9,1.3-30.3,2.5-45.7,4c-25.8,2.5-51,7.9-75.9,14.8c-34.1,9.4-67.1,22-99.1,37c-3.6,1.7-4.3,3.6-4.2,7.1
			c1,23.6,3.4,47.1,7.7,70.4c5.7,30.9,14.4,61,26.3,90.1c12,29.3,27.2,56.9,45.1,82.9c19.8,28.8,42.7,54.9,68,79
			c23.2,22.1,48.1,41.9,74.3,60.3c3.1,2.2,5.3,2.4,8.6,0.3c31.5-20.4,60.9-43.3,87.2-70.1c32.2-32.9,58.8-69.8,79.4-110.9
			c24.9-49.7,40.3-102.5,48.5-157.4c2.3-15.4,3.7-31,5.6-46.5c0.4-2.8-1.1-3.7-3.2-4.8c-24.2-12.8-49.2-23.6-75.1-32.3
			c-30.9-10.3-62.4-17.6-94.9-20.5C1561.3,2263.5,1543.9,2262.8,1525.9,2261.7z"/>
		<path class="st10" d="M1539.4,2616.2c19.8-13.3,33.8-30.6,40.7-53.1c2.4-7.8,6.3-10.2,14-8.8c11.2,2.1,22.4,4.2,33.7,5.1
			c9,0.7,18.8,1.7,27.2-1c18.2-5.8,26.2-23.5,21.7-42.9c-7.6-33.5-17.7-66.7-9.2-101.7c3.4-14.1,6.5-28.3,9.6-42.5
			c5.7-26-14.5-47.7-40.8-44.1c-9.5,1.3-18.9,3.3-28.4,4.1c-31.1,2.5-62.2,6.7-93.3,6.1c-27.5-0.5-55-6.1-82.4-9.9
			c-34-4.6-51.9,14.8-45,48.5c6.7,32.3,13.8,64.7,7.2,98c-3.1,15.6-6.7,31.3-8.5,47.1c-2.9,25.8,16.3,43.5,42.1,39.8
			c6.3-0.9,12.6-2,19-2.7c18.8-1.9,37.7-3.9,56.5-5.4c15.4-1.3,30.9-2.1,46.4-3.1c6.8-0.4,9.9,3.1,9.3,9.7
			c-0.4,4.9-0.5,10.1-2.2,14.6C1551.5,2588,1545.5,2601.5,1539.4,2616.2z"/>
		<path class="st8" d="M1527,2526.8c-29.4-0.9-56.1-12.6-77.4-36c-2.6-2.9-3-5.6,0-7.5c5.1-3.3,10.4-6.6,16.1-8.6
			c7.8-2.8,16.1-4.1,24-6.7c4-1.3,7.8-3.4,11.2-5.9c4.8-3.5,6.2-8.6,4.1-14.2c-1.2-3.1-2.7-6.1-4.2-9.1
			c-6.9-13.7-12.4-27.9-13.7-43.3c-1.3-16,1.7-30.8,15.2-41c13.9-10.5,29.6-11.4,45.4-5.1c16.5,6.6,25.5,24.2,23.8,44.1
			c-1.4,16.2-6.7,31.1-13.8,45.5c-0.9,1.9-2,3.8-2.9,5.7c-4,9-2.3,16,6.6,20c8.7,3.9,18.1,5.8,27.1,9c6.4,2.3,13.1,4.5,18.8,8.1
			c5.5,3.5,5,5.2,0.7,10.1C1588.6,2513.6,1558.8,2526.9,1527,2526.8z"/>
	</g>
	<g id="logo-22_00000102509150760961820850000014926685755783999678_" class="st0">
		<path class="st1" d="M2073.1,2589.8c-2.9,0-5.6,0-8.3,0c-6.8-0.1-13.5-1-20.2-2.2c-10-1.8-19.5-4.8-28.8-8.8c-1-0.4-2-0.8-3-1.3
			c-0.3-0.2-0.7-0.6-0.7-1c0-11-0.2-21.9,0-32.9c0.2-8.5,2.9-16.3,7.6-23.4c4.6-6.8,10.5-12,17.8-15.7c0.3-0.1,0.5-0.3,0.8-0.4
			c0.3-0.1,0.6-0.2,0.8-0.4c-13.5-22.6-1.1-46.1,14.8-53.9c7-3.4,14.2-4.8,21.9-3.9c7.7,0.9,14.5,4,20.3,9.2
			c5.8,5.1,9.7,11.5,11.7,18.9c16.3-11.6,32.5-11.6,48.7,0c3.6-12.3,11.2-21.2,23.3-25.9c9.3-3.6,18.7-3.4,27.9,0.4
			c10.7,4.5,18,12.4,21.5,23.5c3.5,11,2,21.6-3.8,31.3c3,1.9,6.1,3.6,8.9,5.7c7.7,5.8,13,13.4,16,22.5c1.5,4.7,2.2,9.6,2.1,14.6
			c0,10,0,20,0,30c0,0.3,0,0.5,0,0.8c-19.3,9.2-39.6,13-61,12.9c0,2,0,3.9,0,5.8c0,0.9-0.2,1.3-1,1.6c-7.3,3.1-14.6,6.1-22.3,7.9
			c-5.1,1.2-10.2,2.1-15.4,3c-8.3,1.3-16.7,1.6-25.1,1.4c-6.7-0.2-13.5-0.8-20.1-1.9c-8.7-1.5-17.2-3.7-25.4-6.9
			c-2.9-1.1-5.7-2.3-8.5-3.5c-0.6-0.2-0.9-0.6-0.8-1.3C2073.2,2594.1,2073.1,2592.1,2073.1,2589.8z M2132.4,2532.4
			c-4.3,0-8.6-0.1-12.8,0c-2.9,0.1-5.9,0.4-8.7,1c-6.8,1.6-12.5,5.3-17.1,10.6c-4.8,5.6-7.5,12.2-7.8,19.6c-0.3,8-0.1,16-0.1,23.9
			c0,0.6,0.1,0.9,0.7,1.1c1.7,0.6,3.3,1.3,5,1.8c12.1,4.1,24.6,6,37.4,6.3c7.6,0.2,15.2-0.2,22.7-1.3c8.9-1.3,17.6-3.4,26-6.6
			c1-0.4,1.3-0.9,1.3-1.9c0-6.9-0.1-13.8,0-20.7c0.1-9.3-3-17.3-9.4-23.9c-6.6-6.8-14.8-9.9-24.2-10
			C2141,2532.4,2136.7,2532.4,2132.4,2532.4z M2073.1,2577c0-0.5,0-0.9,0-1.3c0-2.8,0-5.6,0-8.4c-0.1-4.5,0.3-8.9,1.5-13.3
			c3.4-12.4,10.6-21.8,21.7-28.3c1.3-0.8,2.7-1.4,3.9-2.1c-1.2-2.8-2.4-5.6-3.7-8.4c-0.2-0.4-0.7-0.7-1.1-0.9
			c-3.3-1.1-6.7-1.7-10.2-1.7c-9.1,0-18.3,0-27.4,0c-7.6,0-14.4,2.4-20.3,7.1c-8.3,6.7-12.4,15.4-12.5,26c-0.1,6.6,0,13.3,0,19.9
			c0,2.9,0,2.9,2.8,4c5.6,2.2,11.5,3.8,17.4,4.9c6.4,1.2,12.8,2.1,19.2,2.3C2067.1,2577.1,2070,2577,2073.1,2577z M2191.8,2577.2
			c0.8,0,1.5,0,2.1,0c10.2,0,20.2-1,30.1-3.5c5-1.3,9.9-3,14.9-4.5c0.8-0.3,1.2-0.7,1.2-1.7c-0.1-6.9,0-13.9-0.1-20.8
			c0-2.8-0.3-5.6-0.8-8.3c-1.1-5.4-3.6-10.2-7.3-14.4c-6.2-7-14-11-23.3-11.3c-10.1-0.3-20.1-0.1-30.2,0c-3.1,0-6.1,0.6-9,1.7
			c-0.4,0.1-0.8,0.5-1,0.8c-1.2,2.7-2.4,5.5-3.7,8.3c0.2,0.1,0.6,0.3,0.9,0.5c4.4,2,8.3,4.7,11.8,8.1c9.5,9.2,14.3,20.3,14.4,33.5
			C2191.8,2569.5,2191.8,2573.2,2191.8,2577.2z M2168.5,2483.6c-0.3,13.5,10.8,25.2,25,25.1c13.8,0,24.8-11,25-24.7
			c0.2-14-11.1-25.3-24.9-25.3C2179,2458.6,2168.3,2470.7,2168.5,2483.6z M2096.4,2483.6c0.2-12-9.5-24.4-24.3-24.9
			c-13.1-0.4-25.1,9.6-25.7,24.1c-0.6,13.6,10,25.3,24.1,25.9C2084.1,2509.2,2096.5,2498.3,2096.4,2483.6z M2157.5,2503.5
			c0.1-13.5-11.1-24.7-24.3-25c-14.2-0.3-25.5,11.1-25.7,24.5c-0.2,13.9,10.7,25.3,24.6,25.6
			C2146.1,2528.7,2157.4,2517.4,2157.5,2503.5z"/>
		<path class="st1" d="M2123,2869.2c-4.5-4.1-8.6-8.7-13.5-12.1c-34.9-23.6-70.8-45.7-104.7-70.6c-26.1-19.2-51.5-39.5-71.2-66.3
			c-20.8-28.2-32.2-59.6-32.6-93.6c-1.1-109.9-0.5-219.7-0.5-329.6c0-1.2,0.5-2.3,1.2-5.8c86.5,7,162.1-18.2,223.8-83.5
			c61.6,64.9,136.6,90.5,225.1,83.2c0,6.1,0,10.5,0,14.8c0,102.4-0.1,204.7,0,307.1c0.1,54.4-18.1,100.9-60.2,136.3
			c-22.7,19.1-46.2,37.1-70.3,54.4c-27.1,19.4-55.3,37.4-82.8,56.2c-3.6,2.5-6.2,6.3-9.3,9.5
			C2126.3,2869.2,2124.7,2869.2,2123,2869.2z M1926,2321.8c-0.1,0.3-0.5,1.4-0.5,2.6c0,97.8-0.4,195.7,0.3,293.5
			c0.2,32.6,9.1,63.9,31,88.7c16.8,19.1,35.6,37,56,52.1c33.9,25,69.8,47.2,104.6,70.9c6.2,4.2,10.8,3.6,16.6-0.3
			c27.6-18.9,55.6-37.1,82.9-56.2c18.3-12.8,36.7-25.6,53.3-40.4c12.1-10.8,22.2-24.3,31.8-37.6c19.8-27.6,23.5-59.7,23.5-92.6
			c0.1-89.5,0-179,0-268.5c0-4.4,0-8.9,0-13.8c-37.6-1.9-73.6-3.4-108.2-17.6c-31.8-13.1-60.3-30-86-52.6c-2.3-2.1-9.9-1.9-12.2,0.3
			c-33.1,30.6-71.8,51.1-115.1,61.5C1979.2,2317.7,1953.1,2318.5,1926,2321.8z"/>
		<path class="st14" d="M2129.3,2395.8c40,0,80-0.2,120,0.1c35.2,0.2,56.5,24.4,52.3,59.4c-6.1,50.5-12.5,100.9-18.8,151.4
			c-3.6,28.8-23.3,46-52.7,46.3c-16.4,0.1-32.8,0.7-49.1-0.2c-9.9-0.6-13.3,3.5-15.6,12.3c-5.2,20.2-11.2,40.2-17.5,60.1
			c-1.3,3.9-5.8,6.8-8.8,10.1c-2.9-3.5-7.3-6.5-8.6-10.6c-6.6-20.7-12.7-41.6-18.3-62.7c-1.9-7.1-5.2-9.3-12.3-9.2
			c-24.5,0.4-49.1,0.2-73.7,0.1c-29.7-0.2-48.4-15.5-52.3-44.7c-7.2-53.1-13.8-106.3-19.9-159.5c-3.2-27.9,19.4-52.3,48.5-52.7
			C2044.7,2395.4,2087,2395.8,2129.3,2395.8C2129.3,2395.8,2129.3,2395.8,2129.3,2395.8z"/>
	</g>
	<g id="logo-23" class="st0">
		<path class="st15" d="M2668.4,2734.8c9.9-16.4,19-31.3,28.1-46.4c-1.3-0.9-2.1-1.6-3.1-2.1c-13.4-7-19.8-18.4-19.8-33.1
			c0-59.4,0.4-118.8,0.2-178.2c-0.1-24.2,19.4-37.8,38.2-37.4c35.9,0.8,71.9-0.3,107.8,0.5c15.7,0.4,31.5,2.8,46.9,5.8
			c29.6,5.9,46.8,24.9,51.6,54.3c2.7,16.8,4,33.9,4.7,50.9c0.7,18.2,0.9,36.6-0.3,54.7c-1.1,16.3-1.7,33.4-10.6,48
			c-13.3,21.8-33.5,34.6-58.4,36.3c-31,2.1-62.1,1.1-93.2,1.7c-3.7,0.1-7.7,1.1-11,2.8c-25.3,13-50.4,26.3-75.6,39.6
			C2672.6,2732.8,2671.3,2733.4,2668.4,2734.8z"/>
		<path class="st1" d="M2787.5,2221.9c15,13.2,28.9,28,45.1,39.5c64,45,136.4,68.6,213.4,78.9c26.1,3.5,52.5,5,81.9,7.7
			c-1.7,26.2-1.9,53.1-5.4,79.5c-25.1,188.5-111.2,345.2-250.2,473.4c-24.3,22.4-51.9,41.3-77.7,62.1c-7.2,5.8-12.8,5.4-20.3,0.1
			c-159.5-113.7-264.9-264.7-313.2-454.7c-13.3-52.3-20.3-105.6-18.9-160.4c27.4-2.6,54.1-4.1,80.6-7.7
			c87.2-11.9,167.9-40.2,237-96.6c7.9-6.4,14.4-14.4,21.5-21.7C2783.3,2221.9,2785.4,2221.9,2787.5,2221.9z M2507.8,2406
			c16.8,203.9,144.2,388.7,278.2,486.1c154.7-126,252.1-284.2,275.8-484.4c-2.5-1.4-2.9-1.8-3.4-1.9
			c-96.5-11.5-187.3-38.8-267.5-95.8c-3.3-2.3-11.3-0.7-15.6,1.7c-23,12.9-44.8,28.1-68.4,39.8
			C2644.5,2382.3,2577.7,2398.1,2507.8,2406z"/>
		<path class="st9" d="M2790.3,2474.1c2.8,0.7,5.8,1.1,8.5,2.1c14.9,5.5,24,16.1,26.1,31.9c2.7,20.4-10.2,38.5-30.3,43.1
			c-21,4.8-42.8-9.6-46.5-30.9c-3.7-21.2,9-40.4,29.9-45.3c1.4-0.3,2.9-0.6,4.4-0.9C2784.9,2474.1,2787.6,2474.1,2790.3,2474.1z"/>
		<path class="st9" d="M2786.3,2644.4c-25.6,0-51.2,0-76.8,0c-3.5,0-4.7-1.2-4.6-4.7c0.5-19.6,6.9-36.9,19.7-51.8
			c12.1-14.1,27.4-23.3,45.7-26.8c24.5-4.7,46.9,0.5,66.6,16c16.5,13,26.4,30.1,29.9,50.7c0.7,3.9,0.9,7.9,1.1,11.9
			c0.2,3.5-1.1,4.7-4.6,4.7C2837.5,2644.4,2811.9,2644.4,2786.3,2644.4z"/>
	</g>
</g>
</svg>
